<svg width="959" height="155" viewBox="0 0 959 155" fill="none" xmlns="http://www.w3.org/2000/svg">
  <line x1="614" y1="106" x2="916" y2="106" stroke="black" stroke-width="4"/>
  <line x1="59" y1="107" x2="312" y2="107" stroke="black" stroke-width="4"/>
  <path d="M126.95 140.064L131.162 138.894V154H134.204V135.514L126.95 137.152V140.064ZM141.916 133.72H139.108V154H141.916V133.72ZM146.804 146.72V154H149.638V146.33C149.638 145.307 149.482 144.458 149.17 143.782C148.858 143.089 148.39 142.569 147.766 142.222C147.16 141.875 146.414 141.702 145.53 141.702C144.629 141.702 143.858 141.927 143.216 142.378C142.592 142.829 142.107 143.427 141.76 144.172C141.414 144.917 141.24 145.767 141.24 146.72H141.916C141.916 146.183 142.029 145.715 142.254 145.316C142.48 144.917 142.792 144.605 143.19 144.38C143.589 144.155 144.048 144.042 144.568 144.042C145.348 144.042 145.912 144.267 146.258 144.718C146.622 145.169 146.804 145.836 146.804 146.72ZM173.657 148.072C173.657 146.841 173.415 145.775 172.929 144.874C172.444 143.973 171.785 143.271 170.953 142.768C170.121 142.265 169.203 142.014 168.197 142.014C167.695 142.014 167.201 142.066 166.715 142.17C166.23 142.274 165.762 142.439 165.311 142.664L166.455 138.504H173.475V135.8H164.141L161.671 145.81C162.295 145.429 162.867 145.134 163.387 144.926C163.925 144.718 164.445 144.579 164.947 144.51C165.467 144.423 165.987 144.38 166.507 144.38C167.218 144.38 167.868 144.519 168.457 144.796C169.047 145.073 169.515 145.472 169.861 145.992C170.208 146.512 170.381 147.145 170.381 147.89C170.381 148.618 170.225 149.251 169.913 149.788C169.619 150.325 169.185 150.733 168.613 151.01C168.041 151.287 167.339 151.426 166.507 151.426C165.935 151.426 165.363 151.313 164.791 151.088C164.219 150.845 163.682 150.533 163.179 150.152C162.694 149.753 162.269 149.32 161.905 148.852L160.111 151.062C160.579 151.634 161.125 152.171 161.749 152.674C162.373 153.159 163.11 153.549 163.959 153.844C164.809 154.139 165.788 154.286 166.897 154.286C167.781 154.286 168.622 154.165 169.419 153.922C170.234 153.662 170.962 153.281 171.603 152.778C172.245 152.258 172.747 151.608 173.111 150.828C173.475 150.048 173.657 149.129 173.657 148.072ZM178.745 144.9C178.745 143.929 178.841 143.037 179.031 142.222C179.222 141.407 179.491 140.705 179.837 140.116C180.201 139.527 180.635 139.076 181.137 138.764C181.64 138.435 182.195 138.27 182.801 138.27C183.443 138.27 184.006 138.435 184.491 138.764C184.994 139.076 185.419 139.527 185.765 140.116C186.129 140.705 186.407 141.407 186.597 142.222C186.788 143.037 186.883 143.929 186.883 144.9C186.883 145.871 186.788 146.763 186.597 147.578C186.407 148.393 186.129 149.095 185.765 149.684C185.419 150.273 184.994 150.733 184.491 151.062C184.006 151.374 183.443 151.53 182.801 151.53C182.195 151.53 181.64 151.374 181.137 151.062C180.635 150.733 180.201 150.273 179.837 149.684C179.491 149.095 179.222 148.393 179.031 147.578C178.841 146.763 178.745 145.871 178.745 144.9ZM175.729 144.9C175.729 146.789 176.024 148.436 176.613 149.84C177.22 151.244 178.052 152.336 179.109 153.116C180.184 153.896 181.415 154.286 182.801 154.286C184.223 154.286 185.462 153.896 186.519 153.116C187.594 152.336 188.426 151.244 189.015 149.84C189.605 148.436 189.899 146.789 189.899 144.9C189.899 143.011 189.605 141.364 189.015 139.96C188.426 138.556 187.594 137.464 186.519 136.684C185.462 135.904 184.223 135.514 182.801 135.514C181.415 135.514 180.184 135.904 179.109 136.684C178.052 137.464 177.22 138.556 176.613 139.96C176.024 141.364 175.729 143.011 175.729 144.9ZM209.841 146.408C209.841 145.42 209.703 144.579 209.425 143.886C209.148 143.193 208.723 142.673 208.151 142.326C207.597 141.962 206.895 141.78 206.045 141.78C205.231 141.78 204.503 141.962 203.861 142.326C203.237 142.69 202.717 143.219 202.301 143.912C202.041 143.219 201.617 142.69 201.027 142.326C200.455 141.962 199.727 141.78 198.843 141.78C198.081 141.78 197.413 141.953 196.841 142.3C196.287 142.629 195.836 143.123 195.489 143.782V142.04H192.733V154H195.489V146.72C195.489 146.148 195.585 145.663 195.775 145.264C195.966 144.865 196.235 144.562 196.581 144.354C196.945 144.146 197.37 144.042 197.855 144.042C198.549 144.042 199.051 144.267 199.363 144.718C199.693 145.151 199.857 145.819 199.857 146.72V154H202.665V146.72C202.665 146.148 202.761 145.663 202.951 145.264C203.159 144.865 203.437 144.562 203.783 144.354C204.147 144.146 204.563 144.042 205.031 144.042C205.725 144.042 206.227 144.267 206.539 144.718C206.869 145.151 207.033 145.819 207.033 146.72V154H209.841V146.408Z" fill="black"/>
  <path d="M705.52 154H719.404V151.14H711.5L716.674 146.07C717.419 145.377 718.017 144.588 718.468 143.704C718.936 142.82 719.17 141.901 719.17 140.948C719.17 140.341 719.04 139.717 718.78 139.076C718.537 138.435 718.156 137.845 717.636 137.308C717.133 136.771 716.492 136.337 715.712 136.008C714.932 135.661 714.013 135.488 712.956 135.488C711.569 135.488 710.391 135.783 709.42 136.372C708.467 136.944 707.739 137.741 707.236 138.764C706.751 139.769 706.508 140.922 706.508 142.222H709.55C709.55 141.425 709.68 140.723 709.94 140.116C710.217 139.509 710.607 139.05 711.11 138.738C711.613 138.409 712.211 138.244 712.904 138.244C713.407 138.244 713.849 138.331 714.23 138.504C714.611 138.66 714.932 138.877 715.192 139.154C715.469 139.431 715.669 139.743 715.79 140.09C715.929 140.419 715.998 140.757 715.998 141.104C715.998 141.589 715.92 142.049 715.764 142.482C715.608 142.915 715.374 143.349 715.062 143.782C714.75 144.215 714.377 144.666 713.944 145.134L705.52 154ZM725.293 133.72H722.485V154H725.293V133.72ZM730.181 146.72V154H733.015V146.33C733.015 145.307 732.859 144.458 732.547 143.782C732.235 143.089 731.767 142.569 731.143 142.222C730.537 141.875 729.791 141.702 728.907 141.702C728.006 141.702 727.235 141.927 726.593 142.378C725.969 142.829 725.484 143.427 725.137 144.172C724.791 144.917 724.617 145.767 724.617 146.72H725.293C725.293 146.183 725.406 145.715 725.631 145.316C725.857 144.917 726.169 144.605 726.567 144.38C726.966 144.155 727.425 144.042 727.945 144.042C728.725 144.042 729.289 144.267 729.635 144.718C729.999 145.169 730.181 145.836 730.181 146.72ZM743.046 150.516H758.022V147.864H754.304L753.862 148.098H747.544L752.198 141.286V149.138L752.016 149.424V154H755.162V135.8H753.316L743.046 150.516ZM773.386 148.072C773.386 146.841 773.143 145.775 772.658 144.874C772.172 143.973 771.514 143.271 770.682 142.768C769.85 142.265 768.931 142.014 767.926 142.014C767.423 142.014 766.929 142.066 766.444 142.17C765.958 142.274 765.49 142.439 765.04 142.664L766.184 138.504H773.204V135.8H763.87L761.4 145.81C762.024 145.429 762.596 145.134 763.116 144.926C763.653 144.718 764.173 144.579 764.676 144.51C765.196 144.423 765.716 144.38 766.236 144.38C766.946 144.38 767.596 144.519 768.186 144.796C768.775 145.073 769.243 145.472 769.59 145.992C769.936 146.512 770.11 147.145 770.11 147.89C770.11 148.618 769.954 149.251 769.642 149.788C769.347 150.325 768.914 150.733 768.342 151.01C767.77 151.287 767.068 151.426 766.236 151.426C765.664 151.426 765.092 151.313 764.52 151.088C763.948 150.845 763.41 150.533 762.908 150.152C762.422 149.753 761.998 149.32 761.634 148.852L759.84 151.062C760.308 151.634 760.854 152.171 761.478 152.674C762.102 153.159 762.838 153.549 763.688 153.844C764.537 154.139 765.516 154.286 766.626 154.286C767.51 154.286 768.35 154.165 769.148 153.922C769.962 153.662 770.69 153.281 771.332 152.778C771.973 152.258 772.476 151.608 772.84 150.828C773.204 150.048 773.386 149.129 773.386 148.072ZM793.32 146.408C793.32 145.42 793.181 144.579 792.904 143.886C792.627 143.193 792.202 142.673 791.63 142.326C791.075 141.962 790.373 141.78 789.524 141.78C788.709 141.78 787.981 141.962 787.34 142.326C786.716 142.69 786.196 143.219 785.78 143.912C785.52 143.219 785.095 142.69 784.506 142.326C783.934 141.962 783.206 141.78 782.322 141.78C781.559 141.78 780.892 141.953 780.32 142.3C779.765 142.629 779.315 143.123 778.968 143.782V142.04H776.212V154H778.968V146.72C778.968 146.148 779.063 145.663 779.254 145.264C779.445 144.865 779.713 144.562 780.06 144.354C780.424 144.146 780.849 144.042 781.334 144.042C782.027 144.042 782.53 144.267 782.842 144.718C783.171 145.151 783.336 145.819 783.336 146.72V154H786.144V146.72C786.144 146.148 786.239 145.663 786.43 145.264C786.638 144.865 786.915 144.562 787.262 144.354C787.626 144.146 788.042 144.042 788.51 144.042C789.203 144.042 789.706 144.267 790.018 144.718C790.347 145.151 790.512 145.819 790.512 146.72V154H793.32V146.408Z" fill="black"/>
  <path d="M41 128.5C52.8007 128.5 62.5 119.393 62.5 108C62.5 96.6066 52.8007 87.5 41 87.5C29.1993 87.5 19.5 96.6066 19.5 108C19.5 119.393 29.1993 128.5 41 128.5Z" fill="#D9D9D9" stroke="black" stroke-width="3"/>
  <path d="M294 128.5C305.801 128.5 315.5 119.393 315.5 108C315.5 96.6066 305.801 87.5 294 87.5C282.199 87.5 272.5 96.6066 272.5 108C272.5 119.393 282.199 128.5 294 128.5Z" fill="#D9D9D9" stroke="black" stroke-width="3"/>
  <path d="M232 127.5C243.801 127.5 253.5 118.393 253.5 107C253.5 95.6066 243.801 86.5 232 86.5C220.199 86.5 210.5 95.6066 210.5 107C210.5 118.393 220.199 127.5 232 127.5Z" fill="#D9D9D9" stroke="black" stroke-width="3"/>
  <path d="M181 128.5C192.801 128.5 202.5 119.393 202.5 108C202.5 96.6066 192.801 87.5 181 87.5C169.199 87.5 159.5 96.6066 159.5 108C159.5 119.393 169.199 128.5 181 128.5Z" fill="#D9D9D9" stroke="black" stroke-width="3"/>
  <path d="M607 127.5C618.801 127.5 628.5 118.393 628.5 107C628.5 95.6066 618.801 86.5 607 86.5C595.199 86.5 585.5 95.6066 585.5 107C585.5 118.393 595.199 127.5 607 127.5Z" fill="#D9D9D9" stroke="black" stroke-width="3"/>
  <path d="M816 127.5C827.801 127.5 837.5 118.393 837.5 107C837.5 95.6066 827.801 86.5 816 86.5C804.199 86.5 794.5 95.6066 794.5 107C794.5 118.393 804.199 127.5 816 127.5Z" fill="#D9D9D9" stroke="black" stroke-width="3"/>
  <path d="M936 127.5C947.801 127.5 957.5 118.393 957.5 107C957.5 95.6066 947.801 86.5 936 86.5C924.199 86.5 914.5 95.6066 914.5 107C914.5 118.393 924.199 127.5 936 127.5Z" fill="#D9D9D9" stroke="black" stroke-width="3"/>
  <path d="M683 126.5C694.801 126.5 704.5 117.393 704.5 106C704.5 94.6066 694.801 85.5 683 85.5C671.199 85.5 661.5 94.6066 661.5 106C661.5 117.393 671.199 126.5 683 126.5Z" fill="#D9D9D9" stroke="black" stroke-width="3"/>
  <path d="M734 126.5C745.801 126.5 755.5 117.393 755.5 106C755.5 94.6066 745.801 85.5 734 85.5C722.199 85.5 712.5 94.6066 712.5 106C712.5 117.393 722.199 126.5 734 126.5Z" fill="#D9D9D9" stroke="black" stroke-width="3"/>
  <path d="M0.925 7.096L7.243 5.341V28H11.806V0.270999L0.925 2.728V7.096ZM22.5557 14.35C22.5557 12.894 22.6987 11.555 22.9847 10.333C23.2707 9.111 23.6737 8.058 24.1937 7.174C24.7397 6.29 25.3897 5.614 26.1437 5.146C26.8977 4.652 27.7297 4.405 28.6397 4.405C29.6017 4.405 30.4467 4.652 31.1747 5.146C31.9287 5.614 32.5657 6.29 33.0857 7.174C33.6317 8.058 34.0477 9.111 34.3337 10.333C34.6197 11.555 34.7627 12.894 34.7627 14.35C34.7627 15.806 34.6197 17.145 34.3337 18.367C34.0477 19.589 33.6317 20.642 33.0857 21.526C32.5657 22.41 31.9287 23.099 31.1747 23.593C30.4467 24.061 29.6017 24.295 28.6397 24.295C27.7297 24.295 26.8977 24.061 26.1437 23.593C25.3897 23.099 24.7397 22.41 24.1937 21.526C23.6737 20.642 23.2707 19.589 22.9847 18.367C22.6987 17.145 22.5557 15.806 22.5557 14.35ZM18.0317 14.35C18.0317 17.184 18.4737 19.654 19.3577 21.76C20.2677 23.866 21.5157 25.504 23.1017 26.674C24.7137 27.844 26.5597 28.429 28.6397 28.429C30.7717 28.429 32.6307 27.844 34.2167 26.674C35.8287 25.504 37.0767 23.866 37.9607 21.76C38.8447 19.654 39.2867 17.184 39.2867 14.35C39.2867 11.516 38.8447 9.046 37.9607 6.94C37.0767 4.834 35.8287 3.196 34.2167 2.026C32.6307 0.855999 30.7717 0.270999 28.6397 0.270999C26.5597 0.270999 24.7137 0.855999 23.1017 2.026C21.5157 3.196 20.2677 4.834 19.3577 6.94C18.4737 9.046 18.0317 11.516 18.0317 14.35ZM44.1227 26.011C44.1227 26.739 44.3827 27.376 44.9027 27.922C45.4487 28.468 46.0987 28.741 46.8527 28.741C47.6587 28.741 48.3217 28.468 48.8417 27.922C49.3617 27.376 49.6217 26.739 49.6217 26.011C49.6217 25.257 49.3617 24.62 48.8417 24.1C48.3217 23.554 47.6587 23.281 46.8527 23.281C46.0987 23.281 45.4487 23.554 44.9027 24.1C44.3827 24.62 44.1227 25.257 44.1227 26.011ZM44.1227 11.269C44.1227 12.023 44.3827 12.673 44.9027 13.219C45.4487 13.739 46.0987 13.999 46.8527 13.999C47.6587 13.999 48.3217 13.739 48.8417 13.219C49.3617 12.673 49.6217 12.023 49.6217 11.269C49.6217 10.515 49.3617 9.878 48.8417 9.358C48.3217 8.812 47.6587 8.539 46.8527 8.539C46.0987 8.539 45.4487 8.812 44.9027 9.358C44.3827 9.878 44.1227 10.515 44.1227 11.269ZM58.9658 14.35C58.9658 12.894 59.1088 11.555 59.3948 10.333C59.6808 9.111 60.0838 8.058 60.6038 7.174C61.1498 6.29 61.7998 5.614 62.5538 5.146C63.3078 4.652 64.1398 4.405 65.0498 4.405C66.0118 4.405 66.8568 4.652 67.5848 5.146C68.3388 5.614 68.9758 6.29 69.4958 7.174C70.0418 8.058 70.4578 9.111 70.7438 10.333C71.0298 11.555 71.1728 12.894 71.1728 14.35C71.1728 15.806 71.0298 17.145 70.7438 18.367C70.4578 19.589 70.0418 20.642 69.4958 21.526C68.9758 22.41 68.3388 23.099 67.5848 23.593C66.8568 24.061 66.0118 24.295 65.0498 24.295C64.1398 24.295 63.3078 24.061 62.5538 23.593C61.7998 23.099 61.1498 22.41 60.6038 21.526C60.0838 20.642 59.6808 19.589 59.3948 18.367C59.1088 17.145 58.9658 15.806 58.9658 14.35ZM54.4418 14.35C54.4418 17.184 54.8838 19.654 55.7678 21.76C56.6778 23.866 57.9258 25.504 59.5118 26.674C61.1238 27.844 62.9698 28.429 65.0498 28.429C67.1818 28.429 69.0408 27.844 70.6268 26.674C72.2388 25.504 73.4868 23.866 74.3708 21.76C75.2548 19.654 75.6968 17.184 75.6968 14.35C75.6968 11.516 75.2548 9.046 74.3708 6.94C73.4868 4.834 72.2388 3.196 70.6268 2.026C69.0408 0.855999 67.1818 0.270999 65.0498 0.270999C62.9698 0.270999 61.1238 0.855999 59.5118 2.026C57.9258 3.196 56.6778 4.834 55.7678 6.94C54.8838 9.046 54.4418 11.516 54.4418 14.35ZM83.3408 14.35C83.3408 12.894 83.4838 11.555 83.7698 10.333C84.0558 9.111 84.4588 8.058 84.9788 7.174C85.5248 6.29 86.1748 5.614 86.9288 5.146C87.6828 4.652 88.5148 4.405 89.4248 4.405C90.3868 4.405 91.2318 4.652 91.9598 5.146C92.7138 5.614 93.3508 6.29 93.8708 7.174C94.4168 8.058 94.8328 9.111 95.1188 10.333C95.4048 11.555 95.5478 12.894 95.5478 14.35C95.5478 15.806 95.4048 17.145 95.1188 18.367C94.8328 19.589 94.4168 20.642 93.8708 21.526C93.3508 22.41 92.7138 23.099 91.9598 23.593C91.2318 24.061 90.3868 24.295 89.4248 24.295C88.5148 24.295 87.6828 24.061 86.9288 23.593C86.1748 23.099 85.5248 22.41 84.9788 21.526C84.4588 20.642 84.0558 19.589 83.7698 18.367C83.4838 17.145 83.3408 15.806 83.3408 14.35ZM78.8168 14.35C78.8168 17.184 79.2588 19.654 80.1428 21.76C81.0528 23.866 82.3008 25.504 83.8868 26.674C85.4988 27.844 87.3448 28.429 89.4248 28.429C91.5568 28.429 93.4158 27.844 95.0018 26.674C96.6138 25.504 97.8618 23.866 98.7458 21.76C99.6298 19.654 100.072 17.184 100.072 14.35C100.072 11.516 99.6298 9.046 98.7458 6.94C97.8618 4.834 96.6138 3.196 95.0018 2.026C93.4158 0.855999 91.5568 0.270999 89.4248 0.270999C87.3448 0.270999 85.4988 0.855999 83.8868 2.026C82.3008 3.196 81.0528 4.834 80.1428 6.94C79.2588 9.046 78.8168 11.516 78.8168 14.35Z" fill="black"/>
  <path d="M416.925 7.096L423.243 5.341V28H427.806V0.270999L416.925 2.728V7.096ZM442.69 14.623C444.614 14.623 446.317 14.337 447.799 13.765C449.307 13.193 450.49 12.374 451.348 11.308C452.206 10.242 452.635 9.02 452.635 7.642C452.635 6.29 452.297 5.068 451.621 3.976C450.971 2.858 450.022 1.961 448.774 1.285C447.526 0.608999 446.018 0.270999 444.25 0.270999C442.586 0.270999 441.117 0.608999 439.843 1.285C438.569 1.935 437.568 2.832 436.84 3.976C436.138 5.12 435.787 6.446 435.787 7.954H440.116C440.116 6.862 440.506 5.965 441.286 5.263C442.092 4.535 443.093 4.171 444.289 4.171C445.095 4.171 445.771 4.327 446.317 4.639C446.863 4.951 447.279 5.393 447.565 5.965C447.851 6.511 447.994 7.148 447.994 7.876C447.994 8.448 447.864 9.007 447.604 9.553C447.37 10.073 447.019 10.528 446.551 10.918C446.109 11.308 445.563 11.62 444.913 11.854C444.263 12.062 443.522 12.166 442.69 12.166V14.623ZM444.055 28.468C445.927 28.468 447.565 28.143 448.969 27.493C450.373 26.843 451.465 25.933 452.245 24.763C453.025 23.593 453.415 22.241 453.415 20.707C453.415 19.329 453.142 18.159 452.596 17.197C452.05 16.209 451.283 15.416 450.295 14.818C449.333 14.194 448.202 13.739 446.902 13.453C445.602 13.141 444.198 12.985 442.69 12.985V15.598C443.6 15.598 444.432 15.702 445.186 15.91C445.94 16.118 446.577 16.417 447.097 16.807C447.643 17.197 448.059 17.678 448.345 18.25C448.631 18.822 448.774 19.472 448.774 20.2C448.774 21.11 448.579 21.89 448.189 22.54C447.799 23.164 447.253 23.645 446.551 23.983C445.875 24.321 445.069 24.49 444.133 24.49C443.223 24.49 442.391 24.321 441.637 23.983C440.883 23.619 440.285 23.125 439.843 22.501C439.427 21.851 439.219 21.084 439.219 20.2H434.617C434.617 21.318 434.838 22.384 435.28 23.398C435.722 24.386 436.346 25.27 437.152 26.05C437.958 26.804 438.946 27.402 440.116 27.844C441.286 28.26 442.599 28.468 444.055 28.468ZM458.218 26.011C458.218 26.739 458.478 27.376 458.998 27.922C459.544 28.468 460.194 28.741 460.948 28.741C461.754 28.741 462.417 28.468 462.937 27.922C463.457 27.376 463.717 26.739 463.717 26.011C463.717 25.257 463.457 24.62 462.937 24.1C462.417 23.554 461.754 23.281 460.948 23.281C460.194 23.281 459.544 23.554 458.998 24.1C458.478 24.62 458.218 25.257 458.218 26.011ZM458.218 11.269C458.218 12.023 458.478 12.673 458.998 13.219C459.544 13.739 460.194 13.999 460.948 13.999C461.754 13.999 462.417 13.739 462.937 13.219C463.457 12.673 463.717 12.023 463.717 11.269C463.717 10.515 463.457 9.878 462.937 9.358C462.417 8.812 461.754 8.539 460.948 8.539C460.194 8.539 459.544 8.812 458.998 9.358C458.478 9.878 458.218 10.515 458.218 11.269ZM473.062 14.35C473.062 12.894 473.205 11.555 473.491 10.333C473.777 9.111 474.18 8.058 474.7 7.174C475.246 6.29 475.896 5.614 476.65 5.146C477.404 4.652 478.236 4.405 479.146 4.405C480.108 4.405 480.953 4.652 481.681 5.146C482.435 5.614 483.072 6.29 483.592 7.174C484.138 8.058 484.554 9.111 484.84 10.333C485.126 11.555 485.269 12.894 485.269 14.35C485.269 15.806 485.126 17.145 484.84 18.367C484.554 19.589 484.138 20.642 483.592 21.526C483.072 22.41 482.435 23.099 481.681 23.593C480.953 24.061 480.108 24.295 479.146 24.295C478.236 24.295 477.404 24.061 476.65 23.593C475.896 23.099 475.246 22.41 474.7 21.526C474.18 20.642 473.777 19.589 473.491 18.367C473.205 17.145 473.062 15.806 473.062 14.35ZM468.538 14.35C468.538 17.184 468.98 19.654 469.864 21.76C470.774 23.866 472.022 25.504 473.608 26.674C475.22 27.844 477.066 28.429 479.146 28.429C481.278 28.429 483.137 27.844 484.723 26.674C486.335 25.504 487.583 23.866 488.467 21.76C489.351 19.654 489.793 17.184 489.793 14.35C489.793 11.516 489.351 9.046 488.467 6.94C487.583 4.834 486.335 3.196 484.723 2.026C483.137 0.855999 481.278 0.270999 479.146 0.270999C477.066 0.270999 475.22 0.855999 473.608 2.026C472.022 3.196 470.774 4.834 469.864 6.94C468.98 9.046 468.538 11.516 468.538 14.35ZM497.437 14.35C497.437 12.894 497.58 11.555 497.866 10.333C498.152 9.111 498.555 8.058 499.075 7.174C499.621 6.29 500.271 5.614 501.025 5.146C501.779 4.652 502.611 4.405 503.521 4.405C504.483 4.405 505.328 4.652 506.056 5.146C506.81 5.614 507.447 6.29 507.967 7.174C508.513 8.058 508.929 9.111 509.215 10.333C509.501 11.555 509.644 12.894 509.644 14.35C509.644 15.806 509.501 17.145 509.215 18.367C508.929 19.589 508.513 20.642 507.967 21.526C507.447 22.41 506.81 23.099 506.056 23.593C505.328 24.061 504.483 24.295 503.521 24.295C502.611 24.295 501.779 24.061 501.025 23.593C500.271 23.099 499.621 22.41 499.075 21.526C498.555 20.642 498.152 19.589 497.866 18.367C497.58 17.145 497.437 15.806 497.437 14.35ZM492.913 14.35C492.913 17.184 493.355 19.654 494.239 21.76C495.149 23.866 496.397 25.504 497.983 26.674C499.595 27.844 501.441 28.429 503.521 28.429C505.653 28.429 507.512 27.844 509.098 26.674C510.71 25.504 511.958 23.866 512.842 21.76C513.726 19.654 514.168 17.184 514.168 14.35C514.168 11.516 513.726 9.046 512.842 6.94C511.958 4.834 510.71 3.196 509.098 2.026C507.512 0.855999 505.653 0.270999 503.521 0.270999C501.441 0.270999 499.595 0.855999 497.983 2.026C496.397 3.196 495.149 4.834 494.239 6.94C493.355 9.046 492.913 11.516 492.913 14.35Z" fill="black"/>
  <path d="M856.925 7.096L863.243 5.341V28H867.806V0.270999L856.925 2.728V7.096ZM878.907 18.796C878.907 17.678 879.141 16.69 879.609 15.832C880.103 14.948 880.766 14.272 881.598 13.804C882.43 13.31 883.379 13.063 884.445 13.063C885.485 13.063 886.421 13.31 887.253 13.804C888.085 14.272 888.735 14.948 889.203 15.832C889.697 16.69 889.944 17.678 889.944 18.796C889.944 19.914 889.697 20.902 889.203 21.76C888.735 22.592 888.085 23.255 887.253 23.749C886.421 24.217 885.485 24.451 884.445 24.451C883.379 24.451 882.43 24.217 881.598 23.749C880.766 23.255 880.103 22.592 879.609 21.76C879.141 20.902 878.907 19.914 878.907 18.796ZM885.381 0.738998L876.723 12.361C876.047 13.245 875.488 14.22 875.046 15.286C874.63 16.352 874.422 17.522 874.422 18.796C874.422 20.798 874.864 22.527 875.748 23.983C876.658 25.439 877.867 26.557 879.375 27.337C880.883 28.091 882.573 28.468 884.445 28.468C886.317 28.468 888.007 28.091 889.515 27.337C891.023 26.557 892.219 25.439 893.103 23.983C893.987 22.527 894.429 20.798 894.429 18.796C894.429 17.496 894.208 16.3 893.766 15.208C893.324 14.116 892.713 13.18 891.933 12.4C891.179 11.594 890.308 10.983 889.32 10.567C888.332 10.151 887.305 9.943 886.239 9.943C885.303 9.943 884.497 10.047 883.821 10.255C883.145 10.463 882.508 10.905 881.91 11.581L882.573 11.464L891.231 0.738998H885.381ZM899.666 26.011C899.666 26.739 899.926 27.376 900.446 27.922C900.992 28.468 901.642 28.741 902.396 28.741C903.202 28.741 903.865 28.468 904.385 27.922C904.905 27.376 905.165 26.739 905.165 26.011C905.165 25.257 904.905 24.62 904.385 24.1C903.865 23.554 903.202 23.281 902.396 23.281C901.642 23.281 900.992 23.554 900.446 24.1C899.926 24.62 899.666 25.257 899.666 26.011ZM899.666 11.269C899.666 12.023 899.926 12.673 900.446 13.219C900.992 13.739 901.642 13.999 902.396 13.999C903.202 13.999 903.865 13.739 904.385 13.219C904.905 12.673 905.165 12.023 905.165 11.269C905.165 10.515 904.905 9.878 904.385 9.358C903.865 8.812 903.202 8.539 902.396 8.539C901.642 8.539 900.992 8.812 900.446 9.358C899.926 9.878 899.666 10.515 899.666 11.269ZM914.509 14.35C914.509 12.894 914.652 11.555 914.938 10.333C915.224 9.111 915.627 8.058 916.147 7.174C916.693 6.29 917.343 5.614 918.097 5.146C918.851 4.652 919.683 4.405 920.593 4.405C921.555 4.405 922.4 4.652 923.128 5.146C923.882 5.614 924.519 6.29 925.039 7.174C925.585 8.058 926.001 9.111 926.287 10.333C926.573 11.555 926.716 12.894 926.716 14.35C926.716 15.806 926.573 17.145 926.287 18.367C926.001 19.589 925.585 20.642 925.039 21.526C924.519 22.41 923.882 23.099 923.128 23.593C922.4 24.061 921.555 24.295 920.593 24.295C919.683 24.295 918.851 24.061 918.097 23.593C917.343 23.099 916.693 22.41 916.147 21.526C915.627 20.642 915.224 19.589 914.938 18.367C914.652 17.145 914.509 15.806 914.509 14.35ZM909.985 14.35C909.985 17.184 910.427 19.654 911.311 21.76C912.221 23.866 913.469 25.504 915.055 26.674C916.667 27.844 918.513 28.429 920.593 28.429C922.725 28.429 924.584 27.844 926.17 26.674C927.782 25.504 929.03 23.866 929.914 21.76C930.798 19.654 931.24 17.184 931.24 14.35C931.24 11.516 930.798 9.046 929.914 6.94C929.03 4.834 927.782 3.196 926.17 2.026C924.584 0.855999 922.725 0.270999 920.593 0.270999C918.513 0.270999 916.667 0.855999 915.055 2.026C913.469 3.196 912.221 4.834 911.311 6.94C910.427 9.046 909.985 11.516 909.985 14.35ZM938.884 14.35C938.884 12.894 939.027 11.555 939.313 10.333C939.599 9.111 940.002 8.058 940.522 7.174C941.068 6.29 941.718 5.614 942.472 5.146C943.226 4.652 944.058 4.405 944.968 4.405C945.93 4.405 946.775 4.652 947.503 5.146C948.257 5.614 948.894 6.29 949.414 7.174C949.96 8.058 950.376 9.111 950.662 10.333C950.948 11.555 951.091 12.894 951.091 14.35C951.091 15.806 950.948 17.145 950.662 18.367C950.376 19.589 949.96 20.642 949.414 21.526C948.894 22.41 948.257 23.099 947.503 23.593C946.775 24.061 945.93 24.295 944.968 24.295C944.058 24.295 943.226 24.061 942.472 23.593C941.718 23.099 941.068 22.41 940.522 21.526C940.002 20.642 939.599 19.589 939.313 18.367C939.027 17.145 938.884 15.806 938.884 14.35ZM934.36 14.35C934.36 17.184 934.802 19.654 935.686 21.76C936.596 23.866 937.844 25.504 939.43 26.674C941.042 27.844 942.888 28.429 944.968 28.429C947.1 28.429 948.959 27.844 950.545 26.674C952.157 25.504 953.405 23.866 954.289 21.76C955.173 19.654 955.615 17.184 955.615 14.35C955.615 11.516 955.173 9.046 954.289 6.94C953.405 4.834 952.157 3.196 950.545 2.026C948.959 0.855999 947.1 0.270999 944.968 0.270999C942.888 0.270999 941.042 0.855999 939.43 2.026C937.844 3.196 936.596 4.834 935.686 6.94C934.802 9.046 934.36 11.516 934.36 14.35Z" fill="black"/>
  <line x1="614" y1="106" x2="916" y2="106" stroke="black" stroke-width="4"/>
  <line x1="59" y1="107" x2="312" y2="107" stroke="black" stroke-width="4"/>
  <path d="M41 128.5C52.8007 128.5 62.5 119.393 62.5 108C62.5 96.6066 52.8007 87.5 41 87.5C29.1993 87.5 19.5 96.6066 19.5 108C19.5 119.393 29.1993 128.5 41 128.5Z" fill="#FF7991" stroke="black" stroke-width="3"/>
  <path d="M294 128.5C305.801 128.5 315.5 119.393 315.5 108C315.5 96.6066 305.801 87.5 294 87.5C282.199 87.5 272.5 96.6066 272.5 108C272.5 119.393 282.199 128.5 294 128.5Z" fill="#FF7991" stroke="black" stroke-width="3"/>
  <path d="M232 127.5C243.801 127.5 253.5 118.393 253.5 107C253.5 95.6066 243.801 86.5 232 86.5C220.199 86.5 210.5 95.6066 210.5 107C210.5 118.393 220.199 127.5 232 127.5Z" fill="#FF7991" stroke="black" stroke-width="3"/>
  <path d="M181 128.5C192.801 128.5 202.5 119.393 202.5 108C202.5 96.6066 192.801 87.5 181 87.5C169.199 87.5 159.5 96.6066 159.5 108C159.5 119.393 169.199 128.5 181 128.5Z" fill="#FF7991" stroke="black" stroke-width="3"/>
  <path d="M607 127.5C618.801 127.5 628.5 118.393 628.5 107C628.5 95.6066 618.801 86.5 607 86.5C595.199 86.5 585.5 95.6066 585.5 107C585.5 118.393 595.199 127.5 607 127.5Z" fill="#FFD542" stroke="black" stroke-width="3"/>
  <path d="M816 127.5C827.801 127.5 837.5 118.393 837.5 107C837.5 95.6066 827.801 86.5 816 86.5C804.199 86.5 794.5 95.6066 794.5 107C794.5 118.393 804.199 127.5 816 127.5Z" fill="#FFD542" stroke="black" stroke-width="3"/>
  <path d="M936 127.5C947.801 127.5 957.5 118.393 957.5 107C957.5 95.6066 947.801 86.5 936 86.5C924.199 86.5 914.5 95.6066 914.5 107C914.5 118.393 924.199 127.5 936 127.5Z" fill="#FFD542" stroke="black" stroke-width="3"/>
  <path d="M683 126.5C694.801 126.5 704.5 117.393 704.5 106C704.5 94.6066 694.801 85.5 683 85.5C671.199 85.5 661.5 94.6066 661.5 106C661.5 117.393 671.199 126.5 683 126.5Z" fill="#FFD542" stroke="black" stroke-width="3"/>
  <path d="M734 126.5C745.801 126.5 755.5 117.393 755.5 106C755.5 94.6066 745.801 85.5 734 85.5C722.199 85.5 712.5 94.6066 712.5 106C712.5 117.393 722.199 126.5 734 126.5Z" fill="#FFD542" stroke="black" stroke-width="3"/>
</svg>
