<svg width="1002" height="155" viewBox="0 0 1002 155" fill="none" xmlns="http://www.w3.org/2000/svg">
  <path d="M0.69 148.592H13.924V145.836H0.69V148.592ZM5.838 140.584V153.87H8.776V140.584H5.838ZM22.4175 145.082C23.7001 145.082 24.8355 144.891 25.8235 144.51C26.8288 144.129 27.6175 143.583 28.1895 142.872C28.7615 142.161 29.0475 141.347 29.0475 140.428C29.0475 139.527 28.8221 138.712 28.3715 137.984C27.9381 137.239 27.3055 136.641 26.4735 136.19C25.6415 135.739 24.6361 135.514 23.4575 135.514C22.3481 135.514 21.3688 135.739 20.5195 136.19C19.6701 136.623 19.0028 137.221 18.5175 137.984C18.0495 138.747 17.8155 139.631 17.8155 140.636H20.7015C20.7015 139.908 20.9615 139.31 21.4815 138.842C22.0188 138.357 22.6861 138.114 23.4835 138.114C24.0208 138.114 24.4715 138.218 24.8355 138.426C25.1995 138.634 25.4768 138.929 25.6675 139.31C25.8581 139.674 25.9535 140.099 25.9535 140.584C25.9535 140.965 25.8668 141.338 25.6935 141.702C25.5375 142.049 25.3035 142.352 24.9915 142.612C24.6968 142.872 24.3328 143.08 23.8995 143.236C23.4661 143.375 22.9721 143.444 22.4175 143.444V145.082ZM23.3275 154.312C24.5755 154.312 25.6675 154.095 26.6035 153.662C27.5395 153.229 28.2675 152.622 28.7875 151.842C29.3075 151.062 29.5675 150.161 29.5675 149.138C29.5675 148.219 29.3855 147.439 29.0215 146.798C28.6575 146.139 28.1461 145.611 27.4875 145.212C26.8461 144.796 26.0921 144.493 25.2255 144.302C24.3588 144.094 23.4228 143.99 22.4175 143.99V145.732C23.0241 145.732 23.5788 145.801 24.0815 145.94C24.5841 146.079 25.0088 146.278 25.3555 146.538C25.7195 146.798 25.9968 147.119 26.1875 147.5C26.3781 147.881 26.4735 148.315 26.4735 148.8C26.4735 149.407 26.3435 149.927 26.0835 150.36C25.8235 150.776 25.4595 151.097 24.9915 151.322C24.5408 151.547 24.0035 151.66 23.3795 151.66C22.7728 151.66 22.2181 151.547 21.7155 151.322C21.2128 151.079 20.8141 150.75 20.5195 150.334C20.2421 149.901 20.1035 149.389 20.1035 148.8H17.0355C17.0355 149.545 17.1828 150.256 17.4775 150.932C17.7721 151.591 18.1881 152.18 18.7255 152.7C19.2628 153.203 19.9215 153.601 20.7015 153.896C21.4815 154.173 22.3568 154.312 23.3275 154.312ZM34.6419 144.9C34.6419 143.929 34.7373 143.037 34.9279 142.222C35.1186 141.407 35.3873 140.705 35.7339 140.116C36.0979 139.527 36.5313 139.076 37.0339 138.764C37.5366 138.435 38.0913 138.27 38.6979 138.27C39.3393 138.27 39.9026 138.435 40.3879 138.764C40.8906 139.076 41.3153 139.527 41.6619 140.116C42.0259 140.705 42.3033 141.407 42.4939 142.222C42.6846 143.037 42.7799 143.929 42.7799 144.9C42.7799 145.871 42.6846 146.763 42.4939 147.578C42.3033 148.393 42.0259 149.095 41.6619 149.684C41.3153 150.273 40.8906 150.733 40.3879 151.062C39.9026 151.374 39.3393 151.53 38.6979 151.53C38.0913 151.53 37.5366 151.374 37.0339 151.062C36.5313 150.733 36.0979 150.273 35.7339 149.684C35.3873 149.095 35.1186 148.393 34.9279 147.578C34.7373 146.763 34.6419 145.871 34.6419 144.9ZM31.6259 144.9C31.6259 146.789 31.9206 148.436 32.5099 149.84C33.1166 151.244 33.9486 152.336 35.0059 153.116C36.0806 153.896 37.3113 154.286 38.6979 154.286C40.1193 154.286 41.3586 153.896 42.4159 153.116C43.4906 152.336 44.3226 151.244 44.9119 149.84C45.5013 148.436 45.7959 146.789 45.7959 144.9C45.7959 143.011 45.5013 141.364 44.9119 139.96C44.3226 138.556 43.4906 137.464 42.4159 136.684C41.3586 135.904 40.1193 135.514 38.6979 135.514C37.3113 135.514 36.0806 135.904 35.0059 136.684C33.9486 137.464 33.1166 138.556 32.5099 139.96C31.9206 141.364 31.6259 143.011 31.6259 144.9ZM65.7379 146.408C65.7379 145.42 65.5993 144.579 65.3219 143.886C65.0446 143.193 64.6199 142.673 64.0479 142.326C63.4933 141.962 62.7913 141.78 61.9419 141.78C61.1273 141.78 60.3993 141.962 59.7579 142.326C59.1339 142.69 58.6139 143.219 58.1979 143.912C57.9379 143.219 57.5133 142.69 56.9239 142.326C56.3519 141.962 55.6239 141.78 54.7399 141.78C53.9773 141.78 53.3099 141.953 52.7379 142.3C52.1833 142.629 51.7326 143.123 51.3859 143.782V142.04H48.6299V154H51.3859V146.72C51.3859 146.148 51.4813 145.663 51.6719 145.264C51.8626 144.865 52.1313 144.562 52.4779 144.354C52.8419 144.146 53.2666 144.042 53.7519 144.042C54.4453 144.042 54.9479 144.267 55.2599 144.718C55.5893 145.151 55.7539 145.819 55.7539 146.72V154H58.5619V146.72C58.5619 146.148 58.6573 145.663 58.8479 145.264C59.0559 144.865 59.3333 144.562 59.6799 144.354C60.0439 144.146 60.4599 144.042 60.9279 144.042C61.6213 144.042 62.1239 144.267 62.4359 144.718C62.7653 145.151 62.9299 145.819 62.9299 146.72V154H65.7379V146.408Z" fill="#5942E8"/>
  <path d="M560.69 148.592H573.924V145.836H560.69V148.592ZM565.838 140.584V153.87H568.776V140.584H565.838ZM582.417 145.082C583.7 145.082 584.835 144.891 585.823 144.51C586.829 144.129 587.617 143.583 588.189 142.872C588.761 142.161 589.047 141.347 589.047 140.428C589.047 139.527 588.822 138.712 588.371 137.984C587.938 137.239 587.305 136.641 586.473 136.19C585.641 135.739 584.636 135.514 583.457 135.514C582.348 135.514 581.369 135.739 580.519 136.19C579.67 136.623 579.003 137.221 578.517 137.984C578.049 138.747 577.815 139.631 577.815 140.636H580.701C580.701 139.908 580.961 139.31 581.481 138.842C582.019 138.357 582.686 138.114 583.483 138.114C584.021 138.114 584.471 138.218 584.835 138.426C585.199 138.634 585.477 138.929 585.667 139.31C585.858 139.674 585.953 140.099 585.953 140.584C585.953 140.965 585.867 141.338 585.693 141.702C585.537 142.049 585.303 142.352 584.991 142.612C584.697 142.872 584.333 143.08 583.899 143.236C583.466 143.375 582.972 143.444 582.417 143.444V145.082ZM583.327 154.312C584.575 154.312 585.667 154.095 586.603 153.662C587.539 153.229 588.267 152.622 588.787 151.842C589.307 151.062 589.567 150.161 589.567 149.138C589.567 148.219 589.385 147.439 589.021 146.798C588.657 146.139 588.146 145.611 587.487 145.212C586.846 144.796 586.092 144.493 585.225 144.302C584.359 144.094 583.423 143.99 582.417 143.99V145.732C583.024 145.732 583.579 145.801 584.081 145.94C584.584 146.079 585.009 146.278 585.355 146.538C585.719 146.798 585.997 147.119 586.187 147.5C586.378 147.881 586.473 148.315 586.473 148.8C586.473 149.407 586.343 149.927 586.083 150.36C585.823 150.776 585.459 151.097 584.991 151.322C584.541 151.547 584.003 151.66 583.379 151.66C582.773 151.66 582.218 151.547 581.715 151.322C581.213 151.079 580.814 150.75 580.519 150.334C580.242 149.901 580.103 149.389 580.103 148.8H577.035C577.035 149.545 577.183 150.256 577.477 150.932C577.772 151.591 578.188 152.18 578.725 152.7C579.263 153.203 579.921 153.601 580.701 153.896C581.481 154.173 582.357 154.312 583.327 154.312ZM594.642 144.9C594.642 143.929 594.737 143.037 594.928 142.222C595.119 141.407 595.387 140.705 595.734 140.116C596.098 139.527 596.531 139.076 597.034 138.764C597.537 138.435 598.091 138.27 598.698 138.27C599.339 138.27 599.903 138.435 600.388 138.764C600.891 139.076 601.315 139.527 601.662 140.116C602.026 140.705 602.303 141.407 602.494 142.222C602.685 143.037 602.78 143.929 602.78 144.9C602.78 145.871 602.685 146.763 602.494 147.578C602.303 148.393 602.026 149.095 601.662 149.684C601.315 150.273 600.891 150.733 600.388 151.062C599.903 151.374 599.339 151.53 598.698 151.53C598.091 151.53 597.537 151.374 597.034 151.062C596.531 150.733 596.098 150.273 595.734 149.684C595.387 149.095 595.119 148.393 594.928 147.578C594.737 146.763 594.642 145.871 594.642 144.9ZM591.626 144.9C591.626 146.789 591.921 148.436 592.51 149.84C593.117 151.244 593.949 152.336 595.006 153.116C596.081 153.896 597.311 154.286 598.698 154.286C600.119 154.286 601.359 153.896 602.416 153.116C603.491 152.336 604.323 151.244 604.912 149.84C605.501 148.436 605.796 146.789 605.796 144.9C605.796 143.011 605.501 141.364 604.912 139.96C604.323 138.556 603.491 137.464 602.416 136.684C601.359 135.904 600.119 135.514 598.698 135.514C597.311 135.514 596.081 135.904 595.006 136.684C593.949 137.464 593.117 138.556 592.51 139.96C591.921 141.364 591.626 143.011 591.626 144.9ZM625.738 146.408C625.738 145.42 625.599 144.579 625.322 143.886C625.045 143.193 624.62 142.673 624.048 142.326C623.493 141.962 622.791 141.78 621.942 141.78C621.127 141.78 620.399 141.962 619.758 142.326C619.134 142.69 618.614 143.219 618.198 143.912C617.938 143.219 617.513 142.69 616.924 142.326C616.352 141.962 615.624 141.78 614.74 141.78C613.977 141.78 613.31 141.953 612.738 142.3C612.183 142.629 611.733 143.123 611.386 143.782V142.04H608.63V154H611.386V146.72C611.386 146.148 611.481 145.663 611.672 145.264C611.863 144.865 612.131 144.562 612.478 144.354C612.842 144.146 613.267 144.042 613.752 144.042C614.445 144.042 614.948 144.267 615.26 144.718C615.589 145.151 615.754 145.819 615.754 146.72V154H618.562V146.72C618.562 146.148 618.657 145.663 618.848 145.264C619.056 144.865 619.333 144.562 619.68 144.354C620.044 144.146 620.46 144.042 620.928 144.042C621.621 144.042 622.124 144.267 622.436 144.718C622.765 145.151 622.93 145.819 622.93 146.72V154H625.738V146.408Z" fill="#5942E8"/>
  <line x1="657" y1="106" x2="959" y2="106" stroke="black" stroke-width="4"/>
  <line x1="102" y1="107" x2="355" y2="107" stroke="black" stroke-width="4"/>
  <path d="M169.95 140.064L174.162 138.894V154H177.204V135.514L169.95 137.152V140.064ZM184.916 133.72H182.108V154H184.916V133.72ZM189.804 146.72V154H192.638V146.33C192.638 145.307 192.482 144.458 192.17 143.782C191.858 143.089 191.39 142.569 190.766 142.222C190.16 141.875 189.414 141.702 188.53 141.702C187.629 141.702 186.858 141.927 186.216 142.378C185.592 142.829 185.107 143.427 184.76 144.172C184.414 144.917 184.24 145.767 184.24 146.72H184.916C184.916 146.183 185.029 145.715 185.254 145.316C185.48 144.917 185.792 144.605 186.19 144.38C186.589 144.155 187.048 144.042 187.568 144.042C188.348 144.042 188.912 144.267 189.258 144.718C189.622 145.169 189.804 145.836 189.804 146.72ZM216.657 148.072C216.657 146.841 216.415 145.775 215.929 144.874C215.444 143.973 214.785 143.271 213.953 142.768C213.121 142.265 212.203 142.014 211.197 142.014C210.695 142.014 210.201 142.066 209.715 142.17C209.23 142.274 208.762 142.439 208.311 142.664L209.455 138.504H216.475V135.8H207.141L204.671 145.81C205.295 145.429 205.867 145.134 206.387 144.926C206.925 144.718 207.445 144.579 207.947 144.51C208.467 144.423 208.987 144.38 209.507 144.38C210.218 144.38 210.868 144.519 211.457 144.796C212.047 145.073 212.515 145.472 212.861 145.992C213.208 146.512 213.381 147.145 213.381 147.89C213.381 148.618 213.225 149.251 212.913 149.788C212.619 150.325 212.185 150.733 211.613 151.01C211.041 151.287 210.339 151.426 209.507 151.426C208.935 151.426 208.363 151.313 207.791 151.088C207.219 150.845 206.682 150.533 206.179 150.152C205.694 149.753 205.269 149.32 204.905 148.852L203.111 151.062C203.579 151.634 204.125 152.171 204.749 152.674C205.373 153.159 206.11 153.549 206.959 153.844C207.809 154.139 208.788 154.286 209.897 154.286C210.781 154.286 211.622 154.165 212.419 153.922C213.234 153.662 213.962 153.281 214.603 152.778C215.245 152.258 215.747 151.608 216.111 150.828C216.475 150.048 216.657 149.129 216.657 148.072ZM221.745 144.9C221.745 143.929 221.841 143.037 222.031 142.222C222.222 141.407 222.491 140.705 222.837 140.116C223.201 139.527 223.635 139.076 224.137 138.764C224.64 138.435 225.195 138.27 225.801 138.27C226.443 138.27 227.006 138.435 227.491 138.764C227.994 139.076 228.419 139.527 228.765 140.116C229.129 140.705 229.407 141.407 229.597 142.222C229.788 143.037 229.883 143.929 229.883 144.9C229.883 145.871 229.788 146.763 229.597 147.578C229.407 148.393 229.129 149.095 228.765 149.684C228.419 150.273 227.994 150.733 227.491 151.062C227.006 151.374 226.443 151.53 225.801 151.53C225.195 151.53 224.64 151.374 224.137 151.062C223.635 150.733 223.201 150.273 222.837 149.684C222.491 149.095 222.222 148.393 222.031 147.578C221.841 146.763 221.745 145.871 221.745 144.9ZM218.729 144.9C218.729 146.789 219.024 148.436 219.613 149.84C220.22 151.244 221.052 152.336 222.109 153.116C223.184 153.896 224.415 154.286 225.801 154.286C227.223 154.286 228.462 153.896 229.519 153.116C230.594 152.336 231.426 151.244 232.015 149.84C232.605 148.436 232.899 146.789 232.899 144.9C232.899 143.011 232.605 141.364 232.015 139.96C231.426 138.556 230.594 137.464 229.519 136.684C228.462 135.904 227.223 135.514 225.801 135.514C224.415 135.514 223.184 135.904 222.109 136.684C221.052 137.464 220.22 138.556 219.613 139.96C219.024 141.364 218.729 143.011 218.729 144.9ZM252.841 146.408C252.841 145.42 252.703 144.579 252.425 143.886C252.148 143.193 251.723 142.673 251.151 142.326C250.597 141.962 249.895 141.78 249.045 141.78C248.231 141.78 247.503 141.962 246.861 142.326C246.237 142.69 245.717 143.219 245.301 143.912C245.041 143.219 244.617 142.69 244.027 142.326C243.455 141.962 242.727 141.78 241.843 141.78C241.081 141.78 240.413 141.953 239.841 142.3C239.287 142.629 238.836 143.123 238.489 143.782V142.04H235.733V154H238.489V146.72C238.489 146.148 238.585 145.663 238.775 145.264C238.966 144.865 239.235 144.562 239.581 144.354C239.945 144.146 240.37 144.042 240.855 144.042C241.549 144.042 242.051 144.267 242.363 144.718C242.693 145.151 242.857 145.819 242.857 146.72V154H245.665V146.72C245.665 146.148 245.761 145.663 245.951 145.264C246.159 144.865 246.437 144.562 246.783 144.354C247.147 144.146 247.563 144.042 248.031 144.042C248.725 144.042 249.227 144.267 249.539 144.718C249.869 145.151 250.033 145.819 250.033 146.72V154H252.841V146.408Z" fill="black"/>
  <path d="M748.52 154H762.404V151.14H754.5L759.674 146.07C760.419 145.377 761.017 144.588 761.468 143.704C761.936 142.82 762.17 141.901 762.17 140.948C762.17 140.341 762.04 139.717 761.78 139.076C761.537 138.435 761.156 137.845 760.636 137.308C760.133 136.771 759.492 136.337 758.712 136.008C757.932 135.661 757.013 135.488 755.956 135.488C754.569 135.488 753.391 135.783 752.42 136.372C751.467 136.944 750.739 137.741 750.236 138.764C749.751 139.769 749.508 140.922 749.508 142.222H752.55C752.55 141.425 752.68 140.723 752.94 140.116C753.217 139.509 753.607 139.05 754.11 138.738C754.613 138.409 755.211 138.244 755.904 138.244C756.407 138.244 756.849 138.331 757.23 138.504C757.611 138.66 757.932 138.877 758.192 139.154C758.469 139.431 758.669 139.743 758.79 140.09C758.929 140.419 758.998 140.757 758.998 141.104C758.998 141.589 758.92 142.049 758.764 142.482C758.608 142.915 758.374 143.349 758.062 143.782C757.75 144.215 757.377 144.666 756.944 145.134L748.52 154ZM768.293 133.72H765.485V154H768.293V133.72ZM773.181 146.72V154H776.015V146.33C776.015 145.307 775.859 144.458 775.547 143.782C775.235 143.089 774.767 142.569 774.143 142.222C773.537 141.875 772.791 141.702 771.907 141.702C771.006 141.702 770.235 141.927 769.593 142.378C768.969 142.829 768.484 143.427 768.137 144.172C767.791 144.917 767.617 145.767 767.617 146.72H768.293C768.293 146.183 768.406 145.715 768.631 145.316C768.857 144.917 769.169 144.605 769.567 144.38C769.966 144.155 770.425 144.042 770.945 144.042C771.725 144.042 772.289 144.267 772.635 144.718C772.999 145.169 773.181 145.836 773.181 146.72ZM786.046 150.516H801.022V147.864H797.304L796.862 148.098H790.544L795.198 141.286V149.138L795.016 149.424V154H798.162V135.8H796.316L786.046 150.516ZM816.386 148.072C816.386 146.841 816.143 145.775 815.658 144.874C815.172 143.973 814.514 143.271 813.682 142.768C812.85 142.265 811.931 142.014 810.926 142.014C810.423 142.014 809.929 142.066 809.444 142.17C808.958 142.274 808.49 142.439 808.04 142.664L809.184 138.504H816.204V135.8H806.87L804.4 145.81C805.024 145.429 805.596 145.134 806.116 144.926C806.653 144.718 807.173 144.579 807.676 144.51C808.196 144.423 808.716 144.38 809.236 144.38C809.946 144.38 810.596 144.519 811.186 144.796C811.775 145.073 812.243 145.472 812.59 145.992C812.936 146.512 813.11 147.145 813.11 147.89C813.11 148.618 812.954 149.251 812.642 149.788C812.347 150.325 811.914 150.733 811.342 151.01C810.77 151.287 810.068 151.426 809.236 151.426C808.664 151.426 808.092 151.313 807.52 151.088C806.948 150.845 806.41 150.533 805.908 150.152C805.422 149.753 804.998 149.32 804.634 148.852L802.84 151.062C803.308 151.634 803.854 152.171 804.478 152.674C805.102 153.159 805.838 153.549 806.688 153.844C807.537 154.139 808.516 154.286 809.626 154.286C810.51 154.286 811.35 154.165 812.148 153.922C812.962 153.662 813.69 153.281 814.332 152.778C814.973 152.258 815.476 151.608 815.84 150.828C816.204 150.048 816.386 149.129 816.386 148.072ZM836.32 146.408C836.32 145.42 836.181 144.579 835.904 143.886C835.627 143.193 835.202 142.673 834.63 142.326C834.075 141.962 833.373 141.78 832.524 141.78C831.709 141.78 830.981 141.962 830.34 142.326C829.716 142.69 829.196 143.219 828.78 143.912C828.52 143.219 828.095 142.69 827.506 142.326C826.934 141.962 826.206 141.78 825.322 141.78C824.559 141.78 823.892 141.953 823.32 142.3C822.765 142.629 822.315 143.123 821.968 143.782V142.04H819.212V154H821.968V146.72C821.968 146.148 822.063 145.663 822.254 145.264C822.445 144.865 822.713 144.562 823.06 144.354C823.424 144.146 823.849 144.042 824.334 144.042C825.027 144.042 825.53 144.267 825.842 144.718C826.171 145.151 826.336 145.819 826.336 146.72V154H829.144V146.72C829.144 146.148 829.239 145.663 829.43 145.264C829.638 144.865 829.915 144.562 830.262 144.354C830.626 144.146 831.042 144.042 831.51 144.042C832.203 144.042 832.706 144.267 833.018 144.718C833.347 145.151 833.512 145.819 833.512 146.72V154H836.32V146.408Z" fill="black"/>
  <path d="M84 128.5C95.8007 128.5 105.5 119.393 105.5 108C105.5 96.6066 95.8007 87.5 84 87.5C72.1993 87.5 62.5 96.6066 62.5 108C62.5 119.393 72.1993 128.5 84 128.5Z" fill="#D9D9D9" stroke="black" stroke-width="3"/>
  <path d="M337 128.5C348.801 128.5 358.5 119.393 358.5 108C358.5 96.6066 348.801 87.5 337 87.5C325.199 87.5 315.5 96.6066 315.5 108C315.5 119.393 325.199 128.5 337 128.5Z" fill="#D9D9D9" stroke="black" stroke-width="3"/>
  <path d="M275 127.5C286.801 127.5 296.5 118.393 296.5 107C296.5 95.6066 286.801 86.5 275 86.5C263.199 86.5 253.5 95.6066 253.5 107C253.5 118.393 263.199 127.5 275 127.5Z" fill="#D9D9D9" stroke="black" stroke-width="3"/>
  <path d="M224 128.5C235.801 128.5 245.5 119.393 245.5 108C245.5 96.6066 235.801 87.5 224 87.5C212.199 87.5 202.5 96.6066 202.5 108C202.5 119.393 212.199 128.5 224 128.5Z" fill="#D9D9D9" stroke="black" stroke-width="3"/>
  <path d="M650 127.5C661.801 127.5 671.5 118.393 671.5 107C671.5 95.6066 661.801 86.5 650 86.5C638.199 86.5 628.5 95.6066 628.5 107C628.5 118.393 638.199 127.5 650 127.5Z" fill="#D9D9D9" stroke="black" stroke-width="3"/>
  <path d="M859 127.5C870.801 127.5 880.5 118.393 880.5 107C880.5 95.6066 870.801 86.5 859 86.5C847.199 86.5 837.5 95.6066 837.5 107C837.5 118.393 847.199 127.5 859 127.5Z" fill="#D9D9D9" stroke="black" stroke-width="3"/>
  <path d="M979 127.5C990.801 127.5 1000.5 118.393 1000.5 107C1000.5 95.6066 990.801 86.5 979 86.5C967.199 86.5 957.5 95.6066 957.5 107C957.5 118.393 967.199 127.5 979 127.5Z" fill="#D9D9D9" stroke="black" stroke-width="3"/>
  <path d="M726 126.5C737.801 126.5 747.5 117.393 747.5 106C747.5 94.6066 737.801 85.5 726 85.5C714.199 85.5 704.5 94.6066 704.5 106C704.5 117.393 714.199 126.5 726 126.5Z" fill="#D9D9D9" stroke="black" stroke-width="3"/>
  <path d="M777 126.5C788.801 126.5 798.5 117.393 798.5 106C798.5 94.6066 788.801 85.5 777 85.5C765.199 85.5 755.5 94.6066 755.5 106C755.5 117.393 765.199 126.5 777 126.5Z" fill="#D9D9D9" stroke="black" stroke-width="3"/>
  <path d="M43.925 7.096L50.243 5.341V28H54.806V0.270999L43.925 2.728V7.096ZM65.5557 14.35C65.5557 12.894 65.6987 11.555 65.9847 10.333C66.2707 9.111 66.6737 8.058 67.1937 7.174C67.7397 6.29 68.3897 5.614 69.1437 5.146C69.8977 4.652 70.7297 4.405 71.6397 4.405C72.6017 4.405 73.4467 4.652 74.1747 5.146C74.9287 5.614 75.5657 6.29 76.0857 7.174C76.6317 8.058 77.0477 9.111 77.3337 10.333C77.6197 11.555 77.7627 12.894 77.7627 14.35C77.7627 15.806 77.6197 17.145 77.3337 18.367C77.0477 19.589 76.6317 20.642 76.0857 21.526C75.5657 22.41 74.9287 23.099 74.1747 23.593C73.4467 24.061 72.6017 24.295 71.6397 24.295C70.7297 24.295 69.8977 24.061 69.1437 23.593C68.3897 23.099 67.7397 22.41 67.1937 21.526C66.6737 20.642 66.2707 19.589 65.9847 18.367C65.6987 17.145 65.5557 15.806 65.5557 14.35ZM61.0317 14.35C61.0317 17.184 61.4737 19.654 62.3577 21.76C63.2677 23.866 64.5157 25.504 66.1017 26.674C67.7137 27.844 69.5597 28.429 71.6397 28.429C73.7717 28.429 75.6307 27.844 77.2167 26.674C78.8287 25.504 80.0767 23.866 80.9607 21.76C81.8447 19.654 82.2867 17.184 82.2867 14.35C82.2867 11.516 81.8447 9.046 80.9607 6.94C80.0767 4.834 78.8287 3.196 77.2167 2.026C75.6307 0.855999 73.7717 0.270999 71.6397 0.270999C69.5597 0.270999 67.7137 0.855999 66.1017 2.026C64.5157 3.196 63.2677 4.834 62.3577 6.94C61.4737 9.046 61.0317 11.516 61.0317 14.35ZM87.1227 26.011C87.1227 26.739 87.3827 27.376 87.9027 27.922C88.4487 28.468 89.0987 28.741 89.8527 28.741C90.6587 28.741 91.3217 28.468 91.8417 27.922C92.3617 27.376 92.6217 26.739 92.6217 26.011C92.6217 25.257 92.3617 24.62 91.8417 24.1C91.3217 23.554 90.6587 23.281 89.8527 23.281C89.0987 23.281 88.4487 23.554 87.9027 24.1C87.3827 24.62 87.1227 25.257 87.1227 26.011ZM87.1227 11.269C87.1227 12.023 87.3827 12.673 87.9027 13.219C88.4487 13.739 89.0987 13.999 89.8527 13.999C90.6587 13.999 91.3217 13.739 91.8417 13.219C92.3617 12.673 92.6217 12.023 92.6217 11.269C92.6217 10.515 92.3617 9.878 91.8417 9.358C91.3217 8.812 90.6587 8.539 89.8527 8.539C89.0987 8.539 88.4487 8.812 87.9027 9.358C87.3827 9.878 87.1227 10.515 87.1227 11.269ZM101.966 14.35C101.966 12.894 102.109 11.555 102.395 10.333C102.681 9.111 103.084 8.058 103.604 7.174C104.15 6.29 104.8 5.614 105.554 5.146C106.308 4.652 107.14 4.405 108.05 4.405C109.012 4.405 109.857 4.652 110.585 5.146C111.339 5.614 111.976 6.29 112.496 7.174C113.042 8.058 113.458 9.111 113.744 10.333C114.03 11.555 114.173 12.894 114.173 14.35C114.173 15.806 114.03 17.145 113.744 18.367C113.458 19.589 113.042 20.642 112.496 21.526C111.976 22.41 111.339 23.099 110.585 23.593C109.857 24.061 109.012 24.295 108.05 24.295C107.14 24.295 106.308 24.061 105.554 23.593C104.8 23.099 104.15 22.41 103.604 21.526C103.084 20.642 102.681 19.589 102.395 18.367C102.109 17.145 101.966 15.806 101.966 14.35ZM97.4418 14.35C97.4418 17.184 97.8838 19.654 98.7678 21.76C99.6778 23.866 100.926 25.504 102.512 26.674C104.124 27.844 105.97 28.429 108.05 28.429C110.182 28.429 112.041 27.844 113.627 26.674C115.239 25.504 116.487 23.866 117.371 21.76C118.255 19.654 118.697 17.184 118.697 14.35C118.697 11.516 118.255 9.046 117.371 6.94C116.487 4.834 115.239 3.196 113.627 2.026C112.041 0.855999 110.182 0.270999 108.05 0.270999C105.97 0.270999 104.124 0.855999 102.512 2.026C100.926 3.196 99.6778 4.834 98.7678 6.94C97.8838 9.046 97.4418 11.516 97.4418 14.35ZM126.341 14.35C126.341 12.894 126.484 11.555 126.77 10.333C127.056 9.111 127.459 8.058 127.979 7.174C128.525 6.29 129.175 5.614 129.929 5.146C130.683 4.652 131.515 4.405 132.425 4.405C133.387 4.405 134.232 4.652 134.96 5.146C135.714 5.614 136.351 6.29 136.871 7.174C137.417 8.058 137.833 9.111 138.119 10.333C138.405 11.555 138.548 12.894 138.548 14.35C138.548 15.806 138.405 17.145 138.119 18.367C137.833 19.589 137.417 20.642 136.871 21.526C136.351 22.41 135.714 23.099 134.96 23.593C134.232 24.061 133.387 24.295 132.425 24.295C131.515 24.295 130.683 24.061 129.929 23.593C129.175 23.099 128.525 22.41 127.979 21.526C127.459 20.642 127.056 19.589 126.77 18.367C126.484 17.145 126.341 15.806 126.341 14.35ZM121.817 14.35C121.817 17.184 122.259 19.654 123.143 21.76C124.053 23.866 125.301 25.504 126.887 26.674C128.499 27.844 130.345 28.429 132.425 28.429C134.557 28.429 136.416 27.844 138.002 26.674C139.614 25.504 140.862 23.866 141.746 21.76C142.63 19.654 143.072 17.184 143.072 14.35C143.072 11.516 142.63 9.046 141.746 6.94C140.862 4.834 139.614 3.196 138.002 2.026C136.416 0.855999 134.557 0.270999 132.425 0.270999C130.345 0.270999 128.499 0.855999 126.887 2.026C125.301 3.196 124.053 4.834 123.143 6.94C122.259 9.046 121.817 11.516 121.817 14.35Z" fill="black"/>
  <path d="M459.925 7.096L466.243 5.341V28H470.806V0.270999L459.925 2.728V7.096ZM485.69 14.623C487.614 14.623 489.317 14.337 490.799 13.765C492.307 13.193 493.49 12.374 494.348 11.308C495.206 10.242 495.635 9.02 495.635 7.642C495.635 6.29 495.297 5.068 494.621 3.976C493.971 2.858 493.022 1.961 491.774 1.285C490.526 0.608999 489.018 0.270999 487.25 0.270999C485.586 0.270999 484.117 0.608999 482.843 1.285C481.569 1.935 480.568 2.832 479.84 3.976C479.138 5.12 478.787 6.446 478.787 7.954H483.116C483.116 6.862 483.506 5.965 484.286 5.263C485.092 4.535 486.093 4.171 487.289 4.171C488.095 4.171 488.771 4.327 489.317 4.639C489.863 4.951 490.279 5.393 490.565 5.965C490.851 6.511 490.994 7.148 490.994 7.876C490.994 8.448 490.864 9.007 490.604 9.553C490.37 10.073 490.019 10.528 489.551 10.918C489.109 11.308 488.563 11.62 487.913 11.854C487.263 12.062 486.522 12.166 485.69 12.166V14.623ZM487.055 28.468C488.927 28.468 490.565 28.143 491.969 27.493C493.373 26.843 494.465 25.933 495.245 24.763C496.025 23.593 496.415 22.241 496.415 20.707C496.415 19.329 496.142 18.159 495.596 17.197C495.05 16.209 494.283 15.416 493.295 14.818C492.333 14.194 491.202 13.739 489.902 13.453C488.602 13.141 487.198 12.985 485.69 12.985V15.598C486.6 15.598 487.432 15.702 488.186 15.91C488.94 16.118 489.577 16.417 490.097 16.807C490.643 17.197 491.059 17.678 491.345 18.25C491.631 18.822 491.774 19.472 491.774 20.2C491.774 21.11 491.579 21.89 491.189 22.54C490.799 23.164 490.253 23.645 489.551 23.983C488.875 24.321 488.069 24.49 487.133 24.49C486.223 24.49 485.391 24.321 484.637 23.983C483.883 23.619 483.285 23.125 482.843 22.501C482.427 21.851 482.219 21.084 482.219 20.2H477.617C477.617 21.318 477.838 22.384 478.28 23.398C478.722 24.386 479.346 25.27 480.152 26.05C480.958 26.804 481.946 27.402 483.116 27.844C484.286 28.26 485.599 28.468 487.055 28.468ZM501.218 26.011C501.218 26.739 501.478 27.376 501.998 27.922C502.544 28.468 503.194 28.741 503.948 28.741C504.754 28.741 505.417 28.468 505.937 27.922C506.457 27.376 506.717 26.739 506.717 26.011C506.717 25.257 506.457 24.62 505.937 24.1C505.417 23.554 504.754 23.281 503.948 23.281C503.194 23.281 502.544 23.554 501.998 24.1C501.478 24.62 501.218 25.257 501.218 26.011ZM501.218 11.269C501.218 12.023 501.478 12.673 501.998 13.219C502.544 13.739 503.194 13.999 503.948 13.999C504.754 13.999 505.417 13.739 505.937 13.219C506.457 12.673 506.717 12.023 506.717 11.269C506.717 10.515 506.457 9.878 505.937 9.358C505.417 8.812 504.754 8.539 503.948 8.539C503.194 8.539 502.544 8.812 501.998 9.358C501.478 9.878 501.218 10.515 501.218 11.269ZM516.062 14.35C516.062 12.894 516.205 11.555 516.491 10.333C516.777 9.111 517.18 8.058 517.7 7.174C518.246 6.29 518.896 5.614 519.65 5.146C520.404 4.652 521.236 4.405 522.146 4.405C523.108 4.405 523.953 4.652 524.681 5.146C525.435 5.614 526.072 6.29 526.592 7.174C527.138 8.058 527.554 9.111 527.84 10.333C528.126 11.555 528.269 12.894 528.269 14.35C528.269 15.806 528.126 17.145 527.84 18.367C527.554 19.589 527.138 20.642 526.592 21.526C526.072 22.41 525.435 23.099 524.681 23.593C523.953 24.061 523.108 24.295 522.146 24.295C521.236 24.295 520.404 24.061 519.65 23.593C518.896 23.099 518.246 22.41 517.7 21.526C517.18 20.642 516.777 19.589 516.491 18.367C516.205 17.145 516.062 15.806 516.062 14.35ZM511.538 14.35C511.538 17.184 511.98 19.654 512.864 21.76C513.774 23.866 515.022 25.504 516.608 26.674C518.22 27.844 520.066 28.429 522.146 28.429C524.278 28.429 526.137 27.844 527.723 26.674C529.335 25.504 530.583 23.866 531.467 21.76C532.351 19.654 532.793 17.184 532.793 14.35C532.793 11.516 532.351 9.046 531.467 6.94C530.583 4.834 529.335 3.196 527.723 2.026C526.137 0.855999 524.278 0.270999 522.146 0.270999C520.066 0.270999 518.22 0.855999 516.608 2.026C515.022 3.196 513.774 4.834 512.864 6.94C511.98 9.046 511.538 11.516 511.538 14.35ZM540.437 14.35C540.437 12.894 540.58 11.555 540.866 10.333C541.152 9.111 541.555 8.058 542.075 7.174C542.621 6.29 543.271 5.614 544.025 5.146C544.779 4.652 545.611 4.405 546.521 4.405C547.483 4.405 548.328 4.652 549.056 5.146C549.81 5.614 550.447 6.29 550.967 7.174C551.513 8.058 551.929 9.111 552.215 10.333C552.501 11.555 552.644 12.894 552.644 14.35C552.644 15.806 552.501 17.145 552.215 18.367C551.929 19.589 551.513 20.642 550.967 21.526C550.447 22.41 549.81 23.099 549.056 23.593C548.328 24.061 547.483 24.295 546.521 24.295C545.611 24.295 544.779 24.061 544.025 23.593C543.271 23.099 542.621 22.41 542.075 21.526C541.555 20.642 541.152 19.589 540.866 18.367C540.58 17.145 540.437 15.806 540.437 14.35ZM535.913 14.35C535.913 17.184 536.355 19.654 537.239 21.76C538.149 23.866 539.397 25.504 540.983 26.674C542.595 27.844 544.441 28.429 546.521 28.429C548.653 28.429 550.512 27.844 552.098 26.674C553.71 25.504 554.958 23.866 555.842 21.76C556.726 19.654 557.168 17.184 557.168 14.35C557.168 11.516 556.726 9.046 555.842 6.94C554.958 4.834 553.71 3.196 552.098 2.026C550.512 0.855999 548.653 0.270999 546.521 0.270999C544.441 0.270999 542.595 0.855999 540.983 2.026C539.397 3.196 538.149 4.834 537.239 6.94C536.355 9.046 535.913 11.516 535.913 14.35Z" fill="black"/>
  <path d="M899.925 7.096L906.243 5.341V28H910.806V0.270999L899.925 2.728V7.096ZM921.907 18.796C921.907 17.678 922.141 16.69 922.609 15.832C923.103 14.948 923.766 14.272 924.598 13.804C925.43 13.31 926.379 13.063 927.445 13.063C928.485 13.063 929.421 13.31 930.253 13.804C931.085 14.272 931.735 14.948 932.203 15.832C932.697 16.69 932.944 17.678 932.944 18.796C932.944 19.914 932.697 20.902 932.203 21.76C931.735 22.592 931.085 23.255 930.253 23.749C929.421 24.217 928.485 24.451 927.445 24.451C926.379 24.451 925.43 24.217 924.598 23.749C923.766 23.255 923.103 22.592 922.609 21.76C922.141 20.902 921.907 19.914 921.907 18.796ZM928.381 0.738998L919.723 12.361C919.047 13.245 918.488 14.22 918.046 15.286C917.63 16.352 917.422 17.522 917.422 18.796C917.422 20.798 917.864 22.527 918.748 23.983C919.658 25.439 920.867 26.557 922.375 27.337C923.883 28.091 925.573 28.468 927.445 28.468C929.317 28.468 931.007 28.091 932.515 27.337C934.023 26.557 935.219 25.439 936.103 23.983C936.987 22.527 937.429 20.798 937.429 18.796C937.429 17.496 937.208 16.3 936.766 15.208C936.324 14.116 935.713 13.18 934.933 12.4C934.179 11.594 933.308 10.983 932.32 10.567C931.332 10.151 930.305 9.943 929.239 9.943C928.303 9.943 927.497 10.047 926.821 10.255C926.145 10.463 925.508 10.905 924.91 11.581L925.573 11.464L934.231 0.738998H928.381ZM942.666 26.011C942.666 26.739 942.926 27.376 943.446 27.922C943.992 28.468 944.642 28.741 945.396 28.741C946.202 28.741 946.865 28.468 947.385 27.922C947.905 27.376 948.165 26.739 948.165 26.011C948.165 25.257 947.905 24.62 947.385 24.1C946.865 23.554 946.202 23.281 945.396 23.281C944.642 23.281 943.992 23.554 943.446 24.1C942.926 24.62 942.666 25.257 942.666 26.011ZM942.666 11.269C942.666 12.023 942.926 12.673 943.446 13.219C943.992 13.739 944.642 13.999 945.396 13.999C946.202 13.999 946.865 13.739 947.385 13.219C947.905 12.673 948.165 12.023 948.165 11.269C948.165 10.515 947.905 9.878 947.385 9.358C946.865 8.812 946.202 8.539 945.396 8.539C944.642 8.539 943.992 8.812 943.446 9.358C942.926 9.878 942.666 10.515 942.666 11.269ZM957.509 14.35C957.509 12.894 957.652 11.555 957.938 10.333C958.224 9.111 958.627 8.058 959.147 7.174C959.693 6.29 960.343 5.614 961.097 5.146C961.851 4.652 962.683 4.405 963.593 4.405C964.555 4.405 965.4 4.652 966.128 5.146C966.882 5.614 967.519 6.29 968.039 7.174C968.585 8.058 969.001 9.111 969.287 10.333C969.573 11.555 969.716 12.894 969.716 14.35C969.716 15.806 969.573 17.145 969.287 18.367C969.001 19.589 968.585 20.642 968.039 21.526C967.519 22.41 966.882 23.099 966.128 23.593C965.4 24.061 964.555 24.295 963.593 24.295C962.683 24.295 961.851 24.061 961.097 23.593C960.343 23.099 959.693 22.41 959.147 21.526C958.627 20.642 958.224 19.589 957.938 18.367C957.652 17.145 957.509 15.806 957.509 14.35ZM952.985 14.35C952.985 17.184 953.427 19.654 954.311 21.76C955.221 23.866 956.469 25.504 958.055 26.674C959.667 27.844 961.513 28.429 963.593 28.429C965.725 28.429 967.584 27.844 969.17 26.674C970.782 25.504 972.03 23.866 972.914 21.76C973.798 19.654 974.24 17.184 974.24 14.35C974.24 11.516 973.798 9.046 972.914 6.94C972.03 4.834 970.782 3.196 969.17 2.026C967.584 0.855999 965.725 0.270999 963.593 0.270999C961.513 0.270999 959.667 0.855999 958.055 2.026C956.469 3.196 955.221 4.834 954.311 6.94C953.427 9.046 952.985 11.516 952.985 14.35ZM981.884 14.35C981.884 12.894 982.027 11.555 982.313 10.333C982.599 9.111 983.002 8.058 983.522 7.174C984.068 6.29 984.718 5.614 985.472 5.146C986.226 4.652 987.058 4.405 987.968 4.405C988.93 4.405 989.775 4.652 990.503 5.146C991.257 5.614 991.894 6.29 992.414 7.174C992.96 8.058 993.376 9.111 993.662 10.333C993.948 11.555 994.091 12.894 994.091 14.35C994.091 15.806 993.948 17.145 993.662 18.367C993.376 19.589 992.96 20.642 992.414 21.526C991.894 22.41 991.257 23.099 990.503 23.593C989.775 24.061 988.93 24.295 987.968 24.295C987.058 24.295 986.226 24.061 985.472 23.593C984.718 23.099 984.068 22.41 983.522 21.526C983.002 20.642 982.599 19.589 982.313 18.367C982.027 17.145 981.884 15.806 981.884 14.35ZM977.36 14.35C977.36 17.184 977.802 19.654 978.686 21.76C979.596 23.866 980.844 25.504 982.43 26.674C984.042 27.844 985.888 28.429 987.968 28.429C990.1 28.429 991.959 27.844 993.545 26.674C995.157 25.504 996.405 23.866 997.289 21.76C998.173 19.654 998.615 17.184 998.615 14.35C998.615 11.516 998.173 9.046 997.289 6.94C996.405 4.834 995.157 3.196 993.545 2.026C991.959 0.855999 990.1 0.270999 987.968 0.270999C985.888 0.270999 984.042 0.855999 982.43 2.026C980.844 3.196 979.596 4.834 978.686 6.94C977.802 9.046 977.36 11.516 977.36 14.35Z" fill="black"/>
  <line x1="657" y1="106" x2="959" y2="106" stroke="black" stroke-width="4"/>
  <line x1="102" y1="107" x2="355" y2="107" stroke="black" stroke-width="4"/>
  <line x1="8" y1="107" x2="88" y2="107" stroke="black" stroke-width="4"/>
  <line x1="8" y1="107" x2="88" y2="107" stroke="#5942E8" stroke-width="4"/>
  <line x1="6" y1="92" x2="6" y2="120" stroke="#5942E8" stroke-width="4"/>
  <line x1="566" y1="107" x2="646" y2="107" stroke="#5942E8" stroke-width="4"/>
  <line x1="564" y1="92" x2="564" y2="120" stroke="#5942E8" stroke-width="4"/>
  <path d="M84 128.5C95.8007 128.5 105.5 119.393 105.5 108C105.5 96.6066 95.8007 87.5 84 87.5C72.1993 87.5 62.5 96.6066 62.5 108C62.5 119.393 72.1993 128.5 84 128.5Z" fill="#FF7991" stroke="black" stroke-width="3"/>
  <path d="M337 128.5C348.801 128.5 358.5 119.393 358.5 108C358.5 96.6066 348.801 87.5 337 87.5C325.199 87.5 315.5 96.6066 315.5 108C315.5 119.393 325.199 128.5 337 128.5Z" fill="#FF7991" stroke="black" stroke-width="3"/>
  <path d="M275 127.5C286.801 127.5 296.5 118.393 296.5 107C296.5 95.6066 286.801 86.5 275 86.5C263.199 86.5 253.5 95.6066 253.5 107C253.5 118.393 263.199 127.5 275 127.5Z" fill="#FF7991" stroke="black" stroke-width="3"/>
  <path d="M224 128.5C235.801 128.5 245.5 119.393 245.5 108C245.5 96.6066 235.801 87.5 224 87.5C212.199 87.5 202.5 96.6066 202.5 108C202.5 119.393 212.199 128.5 224 128.5Z" fill="#FF7991" stroke="black" stroke-width="3"/>
  <path d="M650 127.5C661.801 127.5 671.5 118.393 671.5 107C671.5 95.6066 661.801 86.5 650 86.5C638.199 86.5 628.5 95.6066 628.5 107C628.5 118.393 638.199 127.5 650 127.5Z" fill="#FFD542" stroke="black" stroke-width="3"/>
  <path d="M859 127.5C870.801 127.5 880.5 118.393 880.5 107C880.5 95.6066 870.801 86.5 859 86.5C847.199 86.5 837.5 95.6066 837.5 107C837.5 118.393 847.199 127.5 859 127.5Z" fill="#FFD542" stroke="black" stroke-width="3"/>
  <path d="M979 127.5C990.801 127.5 1000.5 118.393 1000.5 107C1000.5 95.6066 990.801 86.5 979 86.5C967.199 86.5 957.5 95.6066 957.5 107C957.5 118.393 967.199 127.5 979 127.5Z" fill="#FFD542" stroke="black" stroke-width="3"/>
  <path d="M726 126.5C737.801 126.5 747.5 117.393 747.5 106C747.5 94.6066 737.801 85.5 726 85.5C714.199 85.5 704.5 94.6066 704.5 106C704.5 117.393 714.199 126.5 726 126.5Z" fill="#FFD542" stroke="black" stroke-width="3"/>
  <path d="M777 126.5C788.801 126.5 798.5 117.393 798.5 106C798.5 94.6066 788.801 85.5 777 85.5C765.199 85.5 755.5 94.6066 755.5 106C755.5 117.393 765.199 126.5 777 126.5Z" fill="#FFD542" stroke="black" stroke-width="3"/>
  <path d="M4 79V45H21.15L22.1 49.3H34V67.8H21.2L20.25 63.55H7V79H4ZM23.75 64.8H31V52.3H19.55L18.6 48H7V60.55H22.8L23.75 64.8Z" fill="black"/>
  <path d="M562 79V45H579.15L580.1 49.3H592V67.8H579.2L578.25 63.55H565V79H562ZM581.75 64.8H589V52.3H577.55L576.6 48H565V60.55H580.8L581.75 64.8Z" fill="black"/>
</svg>
