<svg width="998" height="242" viewBox="0 0 998 242" fill="none" xmlns="http://www.w3.org/2000/svg">
  <line x1="2" y1="173" x2="2" y2="198" stroke="black" stroke-width="4"/>
  <line x1="984" y1="173" x2="984" y2="198" stroke="black" stroke-width="4"/>
  <line y1="196" x2="982" y2="196" stroke="black" stroke-width="4"/>
  <line x1="653" y1="106" x2="955" y2="106" stroke="black" stroke-width="4"/>
  <line x1="98" y1="107" x2="351" y2="107" stroke="black" stroke-width="4"/>
  <path d="M121.52 154H135.404V151.14H127.5L132.674 146.07C133.419 145.377 134.017 144.588 134.468 143.704C134.936 142.82 135.17 141.901 135.17 140.948C135.17 140.341 135.04 139.717 134.78 139.076C134.537 138.435 134.156 137.845 133.636 137.308C133.133 136.771 132.492 136.337 131.712 136.008C130.932 135.661 130.013 135.488 128.956 135.488C127.569 135.488 126.391 135.783 125.42 136.372C124.467 136.944 123.739 137.741 123.236 138.764C122.751 139.769 122.508 140.922 122.508 142.222H125.55C125.55 141.425 125.68 140.723 125.94 140.116C126.217 139.509 126.607 139.05 127.11 138.738C127.613 138.409 128.211 138.244 128.904 138.244C129.407 138.244 129.849 138.331 130.23 138.504C130.611 138.66 130.932 138.877 131.192 139.154C131.469 139.431 131.669 139.743 131.79 140.09C131.929 140.419 131.998 140.757 131.998 141.104C131.998 141.589 131.92 142.049 131.764 142.482C131.608 142.915 131.374 143.349 131.062 143.782C130.75 144.215 130.377 144.666 129.944 145.134L121.52 154ZM141.293 133.72H138.485V154H141.293V133.72ZM146.181 146.72V154H149.015V146.33C149.015 145.307 148.859 144.458 148.547 143.782C148.235 143.089 147.767 142.569 147.143 142.222C146.537 141.875 145.791 141.702 144.907 141.702C144.006 141.702 143.235 141.927 142.593 142.378C141.969 142.829 141.484 143.427 141.137 144.172C140.791 144.917 140.617 145.767 140.617 146.72H141.293C141.293 146.183 141.406 145.715 141.631 145.316C141.857 144.917 142.169 144.605 142.567 144.38C142.966 144.155 143.425 144.042 143.945 144.042C144.725 144.042 145.289 144.267 145.635 144.718C145.999 145.169 146.181 145.836 146.181 146.72ZM159.098 154H172.982V151.14H165.078L170.252 146.07C170.997 145.377 171.595 144.588 172.046 143.704C172.514 142.82 172.748 141.901 172.748 140.948C172.748 140.341 172.618 139.717 172.358 139.076C172.115 138.435 171.734 137.845 171.214 137.308C170.711 136.771 170.07 136.337 169.29 136.008C168.51 135.661 167.591 135.488 166.534 135.488C165.147 135.488 163.969 135.783 162.998 136.372C162.045 136.944 161.317 137.741 160.814 138.764C160.329 139.769 160.086 140.922 160.086 142.222H163.128C163.128 141.425 163.258 140.723 163.518 140.116C163.795 139.509 164.185 139.05 164.688 138.738C165.191 138.409 165.789 138.244 166.482 138.244C166.985 138.244 167.427 138.331 167.808 138.504C168.189 138.66 168.51 138.877 168.77 139.154C169.047 139.431 169.247 139.743 169.368 140.09C169.507 140.419 169.576 140.757 169.576 141.104C169.576 141.589 169.498 142.049 169.342 142.482C169.186 142.915 168.952 143.349 168.64 143.782C168.328 144.215 167.955 144.666 167.522 145.134L159.098 154ZM178.326 144.9C178.326 143.929 178.421 143.037 178.612 142.222C178.802 141.407 179.071 140.705 179.418 140.116C179.782 139.527 180.215 139.076 180.718 138.764C181.22 138.435 181.775 138.27 182.382 138.27C183.023 138.27 183.586 138.435 184.072 138.764C184.574 139.076 184.999 139.527 185.346 140.116C185.71 140.705 185.987 141.407 186.178 142.222C186.368 143.037 186.464 143.929 186.464 144.9C186.464 145.871 186.368 146.763 186.178 147.578C185.987 148.393 185.71 149.095 185.346 149.684C184.999 150.273 184.574 150.733 184.072 151.062C183.586 151.374 183.023 151.53 182.382 151.53C181.775 151.53 181.22 151.374 180.718 151.062C180.215 150.733 179.782 150.273 179.418 149.684C179.071 149.095 178.802 148.393 178.612 147.578C178.421 146.763 178.326 145.871 178.326 144.9ZM175.31 144.9C175.31 146.789 175.604 148.436 176.194 149.84C176.8 151.244 177.632 152.336 178.69 153.116C179.764 153.896 180.995 154.286 182.382 154.286C183.803 154.286 185.042 153.896 186.1 153.116C187.174 152.336 188.006 151.244 188.596 149.84C189.185 148.436 189.48 146.789 189.48 144.9C189.48 143.011 189.185 141.364 188.596 139.96C188.006 138.556 187.174 137.464 186.1 136.684C185.042 135.904 183.803 135.514 182.382 135.514C180.995 135.514 179.764 135.904 178.69 136.684C177.632 137.464 176.8 138.556 176.194 139.96C175.604 141.364 175.31 143.011 175.31 144.9ZM209.422 146.408C209.422 145.42 209.283 144.579 209.006 143.886C208.728 143.193 208.304 142.673 207.732 142.326C207.177 141.962 206.475 141.78 205.626 141.78C204.811 141.78 204.083 141.962 203.442 142.326C202.818 142.69 202.298 143.219 201.882 143.912C201.622 143.219 201.197 142.69 200.608 142.326C200.036 141.962 199.308 141.78 198.424 141.78C197.661 141.78 196.994 141.953 196.422 142.3C195.867 142.629 195.416 143.123 195.07 143.782V142.04H192.314V154H195.07V146.72C195.07 146.148 195.165 145.663 195.356 145.264C195.546 144.865 195.815 144.562 196.162 144.354C196.526 144.146 196.95 144.042 197.436 144.042C198.129 144.042 198.632 144.267 198.944 144.718C199.273 145.151 199.438 145.819 199.438 146.72V154H202.246V146.72C202.246 146.148 202.341 145.663 202.532 145.264C202.74 144.865 203.017 144.562 203.364 144.354C203.728 144.146 204.144 144.042 204.612 144.042C205.305 144.042 205.808 144.267 206.12 144.718C206.449 145.151 206.614 145.819 206.614 146.72V154H209.422V146.408Z" fill="black"/>
  <path d="M360.79 215.72V236H363.624V215.72H360.79ZM350.884 230.02C350.884 231.32 351.153 232.438 351.69 233.374C352.227 234.31 352.938 235.029 353.822 235.532C354.723 236.017 355.685 236.26 356.708 236.26C357.713 236.26 358.589 236.009 359.334 235.506C360.097 235.003 360.695 234.284 361.128 233.348C361.579 232.412 361.804 231.303 361.804 230.02C361.804 228.72 361.579 227.611 361.128 226.692C360.695 225.756 360.097 225.037 359.334 224.534C358.589 224.031 357.713 223.78 356.708 223.78C355.685 223.78 354.723 224.031 353.822 224.534C352.938 225.019 352.227 225.73 351.69 226.666C351.153 227.585 350.884 228.703 350.884 230.02ZM353.796 230.02C353.796 229.223 353.961 228.538 354.29 227.966C354.619 227.394 355.053 226.961 355.59 226.666C356.145 226.371 356.743 226.224 357.384 226.224C357.921 226.224 358.45 226.371 358.97 226.666C359.507 226.961 359.941 227.394 360.27 227.966C360.617 228.521 360.79 229.205 360.79 230.02C360.79 230.835 360.617 231.528 360.27 232.1C359.941 232.655 359.507 233.079 358.97 233.374C358.45 233.669 357.921 233.816 357.384 233.816C356.743 233.816 356.145 233.669 355.59 233.374C355.053 233.079 354.619 232.646 354.29 232.074C353.961 231.502 353.796 230.817 353.796 230.02ZM368.873 232.282C368.873 231.901 368.959 231.58 369.133 231.32C369.323 231.06 369.601 230.861 369.965 230.722C370.329 230.566 370.805 230.488 371.395 230.488C372.071 230.488 372.712 230.575 373.319 230.748C373.925 230.921 374.497 231.199 375.035 231.58V230.15C374.879 229.959 374.61 229.751 374.229 229.526C373.847 229.283 373.362 229.075 372.773 228.902C372.201 228.729 371.516 228.642 370.719 228.642C369.228 228.642 368.075 228.989 367.261 229.682C366.446 230.358 366.039 231.277 366.039 232.438C366.039 233.253 366.229 233.946 366.611 234.518C366.992 235.09 367.503 235.523 368.145 235.818C368.786 236.113 369.479 236.26 370.225 236.26C370.918 236.26 371.594 236.139 372.253 235.896C372.929 235.636 373.483 235.255 373.917 234.752C374.367 234.232 374.593 233.591 374.593 232.828L374.177 231.268C374.177 231.857 374.029 232.377 373.735 232.828C373.457 233.261 373.085 233.591 372.617 233.816C372.166 234.041 371.663 234.154 371.109 234.154C370.675 234.154 370.285 234.085 369.939 233.946C369.609 233.807 369.349 233.599 369.159 233.322C368.968 233.027 368.873 232.681 368.873 232.282ZM367.989 227.16C368.162 227.039 368.422 226.891 368.769 226.718C369.133 226.527 369.557 226.371 370.043 226.25C370.545 226.111 371.074 226.042 371.629 226.042C371.993 226.042 372.331 226.077 372.643 226.146C372.955 226.215 373.223 226.328 373.449 226.484C373.674 226.64 373.847 226.839 373.969 227.082C374.107 227.325 374.177 227.637 374.177 228.018V236H376.933V227.472C376.933 226.675 376.716 226.007 376.283 225.47C375.849 224.915 375.251 224.491 374.489 224.196C373.743 223.901 372.877 223.754 371.889 223.754C370.779 223.754 369.791 223.91 368.925 224.222C368.075 224.534 367.382 224.855 366.845 225.184L367.989 227.16ZM390.661 224.04H387.645L383.901 233.426L385.227 233.504L381.405 224.04H378.181L382.991 234.596L379.871 241.72H382.861L390.661 224.04ZM392.733 234.674C392.733 235.159 392.906 235.584 393.253 235.948C393.617 236.312 394.05 236.494 394.553 236.494C395.09 236.494 395.532 236.312 395.879 235.948C396.225 235.584 396.399 235.159 396.399 234.674C396.399 234.171 396.225 233.747 395.879 233.4C395.532 233.036 395.09 232.854 394.553 232.854C394.05 232.854 393.617 233.036 393.253 233.4C392.906 233.747 392.733 234.171 392.733 234.674ZM392.733 224.846C392.733 225.349 392.906 225.782 393.253 226.146C393.617 226.493 394.05 226.666 394.553 226.666C395.09 226.666 395.532 226.493 395.879 226.146C396.225 225.782 396.399 225.349 396.399 224.846C396.399 224.343 396.225 223.919 395.879 223.572C395.532 223.208 395.09 223.026 394.553 223.026C394.05 223.026 393.617 223.208 393.253 223.572C392.906 223.919 392.733 224.343 392.733 224.846ZM420.823 230.072C420.823 228.841 420.581 227.775 420.095 226.874C419.61 225.973 418.951 225.271 418.119 224.768C417.287 224.265 416.369 224.014 415.363 224.014C414.861 224.014 414.367 224.066 413.881 224.17C413.396 224.274 412.928 224.439 412.477 224.664L413.621 220.504H420.641V217.8H411.307L408.837 227.81C409.461 227.429 410.033 227.134 410.553 226.926C411.091 226.718 411.611 226.579 412.113 226.51C412.633 226.423 413.153 226.38 413.673 226.38C414.384 226.38 415.034 226.519 415.623 226.796C416.213 227.073 416.681 227.472 417.027 227.992C417.374 228.512 417.547 229.145 417.547 229.89C417.547 230.618 417.391 231.251 417.079 231.788C416.785 232.325 416.351 232.733 415.779 233.01C415.207 233.287 414.505 233.426 413.673 233.426C413.101 233.426 412.529 233.313 411.957 233.088C411.385 232.845 410.848 232.533 410.345 232.152C409.86 231.753 409.435 231.32 409.071 230.852L407.277 233.062C407.745 233.634 408.291 234.171 408.915 234.674C409.539 235.159 410.276 235.549 411.125 235.844C411.975 236.139 412.954 236.286 414.063 236.286C414.947 236.286 415.788 236.165 416.585 235.922C417.4 235.662 418.128 235.281 418.769 234.778C419.411 234.258 419.913 233.608 420.277 232.828C420.641 232.048 420.823 231.129 420.823 230.072ZM426.457 215.72H423.649V236H426.457V215.72ZM431.345 228.72V236H434.179V228.33C434.179 227.307 434.023 226.458 433.711 225.782C433.399 225.089 432.931 224.569 432.307 224.222C431.701 223.875 430.955 223.702 430.071 223.702C429.17 223.702 428.399 223.927 427.757 224.378C427.133 224.829 426.648 225.427 426.301 226.172C425.955 226.917 425.781 227.767 425.781 228.72H426.457C426.457 228.183 426.57 227.715 426.795 227.316C427.021 226.917 427.333 226.605 427.731 226.38C428.13 226.155 428.589 226.042 429.109 226.042C429.889 226.042 430.453 226.267 430.799 226.718C431.163 227.169 431.345 227.836 431.345 228.72ZM450.554 227.082C451.837 227.082 452.972 226.891 453.96 226.51C454.966 226.129 455.754 225.583 456.326 224.872C456.898 224.161 457.184 223.347 457.184 222.428C457.184 221.527 456.959 220.712 456.508 219.984C456.075 219.239 455.442 218.641 454.61 218.19C453.778 217.739 452.773 217.514 451.594 217.514C450.485 217.514 449.506 217.739 448.656 218.19C447.807 218.623 447.14 219.221 446.654 219.984C446.186 220.747 445.952 221.631 445.952 222.636H448.838C448.838 221.908 449.098 221.31 449.618 220.842C450.156 220.357 450.823 220.114 451.62 220.114C452.158 220.114 452.608 220.218 452.972 220.426C453.336 220.634 453.614 220.929 453.804 221.31C453.995 221.674 454.09 222.099 454.09 222.584C454.09 222.965 454.004 223.338 453.83 223.702C453.674 224.049 453.44 224.352 453.128 224.612C452.834 224.872 452.47 225.08 452.036 225.236C451.603 225.375 451.109 225.444 450.554 225.444V227.082ZM451.464 236.312C452.712 236.312 453.804 236.095 454.74 235.662C455.676 235.229 456.404 234.622 456.924 233.842C457.444 233.062 457.704 232.161 457.704 231.138C457.704 230.219 457.522 229.439 457.158 228.798C456.794 228.139 456.283 227.611 455.624 227.212C454.983 226.796 454.229 226.493 453.362 226.302C452.496 226.094 451.56 225.99 450.554 225.99V227.732C451.161 227.732 451.716 227.801 452.218 227.94C452.721 228.079 453.146 228.278 453.492 228.538C453.856 228.798 454.134 229.119 454.324 229.5C454.515 229.881 454.61 230.315 454.61 230.8C454.61 231.407 454.48 231.927 454.22 232.36C453.96 232.776 453.596 233.097 453.128 233.322C452.678 233.547 452.14 233.66 451.516 233.66C450.91 233.66 450.355 233.547 449.852 233.322C449.35 233.079 448.951 232.75 448.656 232.334C448.379 231.901 448.24 231.389 448.24 230.8H445.172C445.172 231.545 445.32 232.256 445.614 232.932C445.909 233.591 446.325 234.18 446.862 234.7C447.4 235.203 448.058 235.601 448.838 235.896C449.618 236.173 450.494 236.312 451.464 236.312ZM473.179 230.072C473.179 228.841 472.936 227.775 472.451 226.874C471.965 225.973 471.307 225.271 470.475 224.768C469.643 224.265 468.724 224.014 467.719 224.014C467.216 224.014 466.722 224.066 466.237 224.17C465.751 224.274 465.283 224.439 464.833 224.664L465.977 220.504H472.997V217.8H463.663L461.193 227.81C461.817 227.429 462.389 227.134 462.909 226.926C463.446 226.718 463.966 226.579 464.469 226.51C464.989 226.423 465.509 226.38 466.029 226.38C466.739 226.38 467.389 226.519 467.979 226.796C468.568 227.073 469.036 227.472 469.383 227.992C469.729 228.512 469.903 229.145 469.903 229.89C469.903 230.618 469.747 231.251 469.435 231.788C469.14 232.325 468.707 232.733 468.135 233.01C467.563 233.287 466.861 233.426 466.029 233.426C465.457 233.426 464.885 233.313 464.313 233.088C463.741 232.845 463.203 232.533 462.701 232.152C462.215 231.753 461.791 231.32 461.427 230.852L459.633 233.062C460.101 233.634 460.647 234.171 461.271 234.674C461.895 235.159 462.631 235.549 463.481 235.844C464.33 236.139 465.309 236.286 466.419 236.286C467.303 236.286 468.143 236.165 468.941 235.922C469.755 235.662 470.483 235.281 471.125 234.778C471.766 234.258 472.269 233.608 472.633 232.828C472.997 232.048 473.179 231.129 473.179 230.072ZM493.113 228.408C493.113 227.42 492.974 226.579 492.697 225.886C492.42 225.193 491.995 224.673 491.423 224.326C490.868 223.962 490.166 223.78 489.317 223.78C488.502 223.78 487.774 223.962 487.133 224.326C486.509 224.69 485.989 225.219 485.573 225.912C485.313 225.219 484.888 224.69 484.299 224.326C483.727 223.962 482.999 223.78 482.115 223.78C481.352 223.78 480.685 223.953 480.113 224.3C479.558 224.629 479.108 225.123 478.761 225.782V224.04H476.005V236H478.761V228.72C478.761 228.148 478.856 227.663 479.047 227.264C479.238 226.865 479.506 226.562 479.853 226.354C480.217 226.146 480.642 226.042 481.127 226.042C481.82 226.042 482.323 226.267 482.635 226.718C482.964 227.151 483.129 227.819 483.129 228.72V236H485.937V228.72C485.937 228.148 486.032 227.663 486.223 227.264C486.431 226.865 486.708 226.562 487.055 226.354C487.419 226.146 487.835 226.042 488.303 226.042C488.996 226.042 489.499 226.267 489.811 226.718C490.14 227.151 490.305 227.819 490.305 228.72V236H493.113V228.408Z" fill="black"/>
  <path d="M720.812 145.082C722.095 145.082 723.23 144.891 724.218 144.51C725.223 144.129 726.012 143.583 726.584 142.872C727.156 142.161 727.442 141.347 727.442 140.428C727.442 139.527 727.217 138.712 726.766 137.984C726.333 137.239 725.7 136.641 724.868 136.19C724.036 135.739 723.031 135.514 721.852 135.514C720.743 135.514 719.763 135.739 718.914 136.19C718.065 136.623 717.397 137.221 716.912 137.984C716.444 138.747 716.21 139.631 716.21 140.636H719.096C719.096 139.908 719.356 139.31 719.876 138.842C720.413 138.357 721.081 138.114 721.878 138.114C722.415 138.114 722.866 138.218 723.23 138.426C723.594 138.634 723.871 138.929 724.062 139.31C724.253 139.674 724.348 140.099 724.348 140.584C724.348 140.965 724.261 141.338 724.088 141.702C723.932 142.049 723.698 142.352 723.386 142.612C723.091 142.872 722.727 143.08 722.294 143.236C721.861 143.375 721.367 143.444 720.812 143.444V145.082ZM721.722 154.312C722.97 154.312 724.062 154.095 724.998 153.662C725.934 153.229 726.662 152.622 727.182 151.842C727.702 151.062 727.962 150.161 727.962 149.138C727.962 148.219 727.78 147.439 727.416 146.798C727.052 146.139 726.541 145.611 725.882 145.212C725.241 144.796 724.487 144.493 723.62 144.302C722.753 144.094 721.817 143.99 720.812 143.99V145.732C721.419 145.732 721.973 145.801 722.476 145.94C722.979 146.079 723.403 146.278 723.75 146.538C724.114 146.798 724.391 147.119 724.582 147.5C724.773 147.881 724.868 148.315 724.868 148.8C724.868 149.407 724.738 149.927 724.478 150.36C724.218 150.776 723.854 151.097 723.386 151.322C722.935 151.547 722.398 151.66 721.774 151.66C721.167 151.66 720.613 151.547 720.11 151.322C719.607 151.079 719.209 150.75 718.914 150.334C718.637 149.901 718.498 149.389 718.498 148.8H715.43C715.43 149.545 715.577 150.256 715.872 150.932C716.167 151.591 716.583 152.18 717.12 152.7C717.657 153.203 718.316 153.601 719.096 153.896C719.876 154.173 720.751 154.312 721.722 154.312ZM733.582 133.72H730.774V154H733.582V133.72ZM738.47 146.72V154H741.304V146.33C741.304 145.307 741.148 144.458 740.836 143.782C740.524 143.089 740.056 142.569 739.432 142.222C738.826 141.875 738.08 141.702 737.196 141.702C736.295 141.702 735.524 141.927 734.882 142.378C734.258 142.829 733.773 143.427 733.426 144.172C733.08 144.917 732.906 145.767 732.906 146.72H733.582C733.582 146.183 733.695 145.715 733.92 145.316C734.146 144.917 734.458 144.605 734.856 144.38C735.255 144.155 735.714 144.042 736.234 144.042C737.014 144.042 737.578 144.267 737.924 144.718C738.288 145.169 738.47 145.836 738.47 146.72ZM752.817 140.064L757.029 138.894V154H760.071V135.514L752.817 137.152V140.064ZM777.638 148.072C777.638 146.841 777.395 145.775 776.91 144.874C776.424 143.973 775.766 143.271 774.934 142.768C774.102 142.265 773.183 142.014 772.178 142.014C771.675 142.014 771.181 142.066 770.696 142.17C770.21 142.274 769.742 142.439 769.292 142.664L770.436 138.504H777.456V135.8H768.122L765.652 145.81C766.276 145.429 766.848 145.134 767.368 144.926C767.905 144.718 768.425 144.579 768.928 144.51C769.448 144.423 769.968 144.38 770.488 144.38C771.198 144.38 771.848 144.519 772.438 144.796C773.027 145.073 773.495 145.472 773.842 145.992C774.188 146.512 774.362 147.145 774.362 147.89C774.362 148.618 774.206 149.251 773.894 149.788C773.599 150.325 773.166 150.733 772.594 151.01C772.022 151.287 771.32 151.426 770.488 151.426C769.916 151.426 769.344 151.313 768.772 151.088C768.2 150.845 767.662 150.533 767.16 150.152C766.674 149.753 766.25 149.32 765.886 148.852L764.092 151.062C764.56 151.634 765.106 152.171 765.73 152.674C766.354 153.159 767.09 153.549 767.94 153.844C768.789 154.139 769.768 154.286 770.878 154.286C771.762 154.286 772.602 154.165 773.4 153.922C774.214 153.662 774.942 153.281 775.584 152.778C776.225 152.258 776.728 151.608 777.092 150.828C777.456 150.048 777.638 149.129 777.638 148.072ZM797.572 146.408C797.572 145.42 797.433 144.579 797.156 143.886C796.879 143.193 796.454 142.673 795.882 142.326C795.327 141.962 794.625 141.78 793.776 141.78C792.961 141.78 792.233 141.962 791.592 142.326C790.968 142.69 790.448 143.219 790.032 143.912C789.772 143.219 789.347 142.69 788.758 142.326C788.186 141.962 787.458 141.78 786.574 141.78C785.811 141.78 785.144 141.953 784.572 142.3C784.017 142.629 783.567 143.123 783.22 143.782V142.04H780.464V154H783.22V146.72C783.22 146.148 783.315 145.663 783.506 145.264C783.697 144.865 783.965 144.562 784.312 144.354C784.676 144.146 785.101 144.042 785.586 144.042C786.279 144.042 786.782 144.267 787.094 144.718C787.423 145.151 787.588 145.819 787.588 146.72V154H790.396V146.72C790.396 146.148 790.491 145.663 790.682 145.264C790.89 144.865 791.167 144.562 791.514 144.354C791.878 144.146 792.294 144.042 792.762 144.042C793.455 144.042 793.958 144.267 794.27 144.718C794.599 145.151 794.764 145.819 794.764 146.72V154H797.572V146.408Z" fill="black"/>
  <path d="M80 128.5C91.8007 128.5 101.5 119.393 101.5 108C101.5 96.6066 91.8007 87.5 80 87.5C68.1993 87.5 58.5 96.6066 58.5 108C58.5 119.393 68.1993 128.5 80 128.5Z" fill="#D9D9D9" stroke="black" stroke-width="3"/>
  <path d="M333 128.5C344.801 128.5 354.5 119.393 354.5 108C354.5 96.6066 344.801 87.5 333 87.5C321.199 87.5 311.5 96.6066 311.5 108C311.5 119.393 321.199 128.5 333 128.5Z" fill="#D9D9D9" stroke="black" stroke-width="3"/>
  <path d="M271 127.5C282.801 127.5 292.5 118.393 292.5 107C292.5 95.6066 282.801 86.5 271 86.5C259.199 86.5 249.5 95.6066 249.5 107C249.5 118.393 259.199 127.5 271 127.5Z" fill="#D9D9D9" stroke="black" stroke-width="3"/>
  <path d="M220 128.5C231.801 128.5 241.5 119.393 241.5 108C241.5 96.6066 231.801 87.5 220 87.5C208.199 87.5 198.5 96.6066 198.5 108C198.5 119.393 208.199 128.5 220 128.5Z" fill="#D9D9D9" stroke="black" stroke-width="3"/>
  <path d="M646 127.5C657.801 127.5 667.5 118.393 667.5 107C667.5 95.6066 657.801 86.5 646 86.5C634.199 86.5 624.5 95.6066 624.5 107C624.5 118.393 634.199 127.5 646 127.5Z" fill="#D9D9D9" stroke="black" stroke-width="3"/>
  <path d="M855 127.5C866.801 127.5 876.5 118.393 876.5 107C876.5 95.6066 866.801 86.5 855 86.5C843.199 86.5 833.5 95.6066 833.5 107C833.5 118.393 843.199 127.5 855 127.5Z" fill="#D9D9D9" stroke="black" stroke-width="3"/>
  <path d="M975 127.5C986.801 127.5 996.5 118.393 996.5 107C996.5 95.6066 986.801 86.5 975 86.5C963.199 86.5 953.5 95.6066 953.5 107C953.5 118.393 963.199 127.5 975 127.5Z" fill="#D9D9D9" stroke="black" stroke-width="3"/>
  <path d="M722 126.5C733.801 126.5 743.5 117.393 743.5 106C743.5 94.6066 733.801 85.5 722 85.5C710.199 85.5 700.5 94.6066 700.5 106C700.5 117.393 710.199 126.5 722 126.5Z" fill="#D9D9D9" stroke="black" stroke-width="3"/>
  <path d="M773 126.5C784.801 126.5 794.5 117.393 794.5 106C794.5 94.6066 784.801 85.5 773 85.5C761.199 85.5 751.5 94.6066 751.5 106C751.5 117.393 761.199 126.5 773 126.5Z" fill="#D9D9D9" stroke="black" stroke-width="3"/>
  <path d="M39.925 7.096L46.243 5.341V28H50.806V0.270999L39.925 2.728V7.096ZM61.5557 14.35C61.5557 12.894 61.6987 11.555 61.9847 10.333C62.2707 9.111 62.6737 8.058 63.1937 7.174C63.7397 6.29 64.3897 5.614 65.1437 5.146C65.8977 4.652 66.7297 4.405 67.6397 4.405C68.6017 4.405 69.4467 4.652 70.1747 5.146C70.9287 5.614 71.5657 6.29 72.0857 7.174C72.6317 8.058 73.0477 9.111 73.3337 10.333C73.6197 11.555 73.7627 12.894 73.7627 14.35C73.7627 15.806 73.6197 17.145 73.3337 18.367C73.0477 19.589 72.6317 20.642 72.0857 21.526C71.5657 22.41 70.9287 23.099 70.1747 23.593C69.4467 24.061 68.6017 24.295 67.6397 24.295C66.7297 24.295 65.8977 24.061 65.1437 23.593C64.3897 23.099 63.7397 22.41 63.1937 21.526C62.6737 20.642 62.2707 19.589 61.9847 18.367C61.6987 17.145 61.5557 15.806 61.5557 14.35ZM57.0317 14.35C57.0317 17.184 57.4737 19.654 58.3577 21.76C59.2677 23.866 60.5157 25.504 62.1017 26.674C63.7137 27.844 65.5597 28.429 67.6397 28.429C69.7717 28.429 71.6307 27.844 73.2167 26.674C74.8287 25.504 76.0767 23.866 76.9607 21.76C77.8447 19.654 78.2867 17.184 78.2867 14.35C78.2867 11.516 77.8447 9.046 76.9607 6.94C76.0767 4.834 74.8287 3.196 73.2167 2.026C71.6307 0.855999 69.7717 0.270999 67.6397 0.270999C65.5597 0.270999 63.7137 0.855999 62.1017 2.026C60.5157 3.196 59.2677 4.834 58.3577 6.94C57.4737 9.046 57.0317 11.516 57.0317 14.35ZM83.1227 26.011C83.1227 26.739 83.3827 27.376 83.9027 27.922C84.4487 28.468 85.0987 28.741 85.8527 28.741C86.6587 28.741 87.3217 28.468 87.8417 27.922C88.3617 27.376 88.6217 26.739 88.6217 26.011C88.6217 25.257 88.3617 24.62 87.8417 24.1C87.3217 23.554 86.6587 23.281 85.8527 23.281C85.0987 23.281 84.4487 23.554 83.9027 24.1C83.3827 24.62 83.1227 25.257 83.1227 26.011ZM83.1227 11.269C83.1227 12.023 83.3827 12.673 83.9027 13.219C84.4487 13.739 85.0987 13.999 85.8527 13.999C86.6587 13.999 87.3217 13.739 87.8417 13.219C88.3617 12.673 88.6217 12.023 88.6217 11.269C88.6217 10.515 88.3617 9.878 87.8417 9.358C87.3217 8.812 86.6587 8.539 85.8527 8.539C85.0987 8.539 84.4487 8.812 83.9027 9.358C83.3827 9.878 83.1227 10.515 83.1227 11.269ZM97.9658 14.35C97.9658 12.894 98.1088 11.555 98.3948 10.333C98.6808 9.111 99.0838 8.058 99.6038 7.174C100.15 6.29 100.8 5.614 101.554 5.146C102.308 4.652 103.14 4.405 104.05 4.405C105.012 4.405 105.857 4.652 106.585 5.146C107.339 5.614 107.976 6.29 108.496 7.174C109.042 8.058 109.458 9.111 109.744 10.333C110.03 11.555 110.173 12.894 110.173 14.35C110.173 15.806 110.03 17.145 109.744 18.367C109.458 19.589 109.042 20.642 108.496 21.526C107.976 22.41 107.339 23.099 106.585 23.593C105.857 24.061 105.012 24.295 104.05 24.295C103.14 24.295 102.308 24.061 101.554 23.593C100.8 23.099 100.15 22.41 99.6038 21.526C99.0838 20.642 98.6808 19.589 98.3948 18.367C98.1088 17.145 97.9658 15.806 97.9658 14.35ZM93.4418 14.35C93.4418 17.184 93.8838 19.654 94.7678 21.76C95.6778 23.866 96.9258 25.504 98.5118 26.674C100.124 27.844 101.97 28.429 104.05 28.429C106.182 28.429 108.041 27.844 109.627 26.674C111.239 25.504 112.487 23.866 113.371 21.76C114.255 19.654 114.697 17.184 114.697 14.35C114.697 11.516 114.255 9.046 113.371 6.94C112.487 4.834 111.239 3.196 109.627 2.026C108.041 0.855999 106.182 0.270999 104.05 0.270999C101.97 0.270999 100.124 0.855999 98.5118 2.026C96.9258 3.196 95.6778 4.834 94.7678 6.94C93.8838 9.046 93.4418 11.516 93.4418 14.35ZM122.341 14.35C122.341 12.894 122.484 11.555 122.77 10.333C123.056 9.111 123.459 8.058 123.979 7.174C124.525 6.29 125.175 5.614 125.929 5.146C126.683 4.652 127.515 4.405 128.425 4.405C129.387 4.405 130.232 4.652 130.96 5.146C131.714 5.614 132.351 6.29 132.871 7.174C133.417 8.058 133.833 9.111 134.119 10.333C134.405 11.555 134.548 12.894 134.548 14.35C134.548 15.806 134.405 17.145 134.119 18.367C133.833 19.589 133.417 20.642 132.871 21.526C132.351 22.41 131.714 23.099 130.96 23.593C130.232 24.061 129.387 24.295 128.425 24.295C127.515 24.295 126.683 24.061 125.929 23.593C125.175 23.099 124.525 22.41 123.979 21.526C123.459 20.642 123.056 19.589 122.77 18.367C122.484 17.145 122.341 15.806 122.341 14.35ZM117.817 14.35C117.817 17.184 118.259 19.654 119.143 21.76C120.053 23.866 121.301 25.504 122.887 26.674C124.499 27.844 126.345 28.429 128.425 28.429C130.557 28.429 132.416 27.844 134.002 26.674C135.614 25.504 136.862 23.866 137.746 21.76C138.63 19.654 139.072 17.184 139.072 14.35C139.072 11.516 138.63 9.046 137.746 6.94C136.862 4.834 135.614 3.196 134.002 2.026C132.416 0.855999 130.557 0.270999 128.425 0.270999C126.345 0.270999 124.499 0.855999 122.887 2.026C121.301 3.196 120.053 4.834 119.143 6.94C118.259 9.046 117.817 11.516 117.817 14.35Z" fill="black"/>
  <path d="M455.925 7.096L462.243 5.341V28H466.806V0.270999L455.925 2.728V7.096ZM481.69 14.623C483.614 14.623 485.317 14.337 486.799 13.765C488.307 13.193 489.49 12.374 490.348 11.308C491.206 10.242 491.635 9.02 491.635 7.642C491.635 6.29 491.297 5.068 490.621 3.976C489.971 2.858 489.022 1.961 487.774 1.285C486.526 0.608999 485.018 0.270999 483.25 0.270999C481.586 0.270999 480.117 0.608999 478.843 1.285C477.569 1.935 476.568 2.832 475.84 3.976C475.138 5.12 474.787 6.446 474.787 7.954H479.116C479.116 6.862 479.506 5.965 480.286 5.263C481.092 4.535 482.093 4.171 483.289 4.171C484.095 4.171 484.771 4.327 485.317 4.639C485.863 4.951 486.279 5.393 486.565 5.965C486.851 6.511 486.994 7.148 486.994 7.876C486.994 8.448 486.864 9.007 486.604 9.553C486.37 10.073 486.019 10.528 485.551 10.918C485.109 11.308 484.563 11.62 483.913 11.854C483.263 12.062 482.522 12.166 481.69 12.166V14.623ZM483.055 28.468C484.927 28.468 486.565 28.143 487.969 27.493C489.373 26.843 490.465 25.933 491.245 24.763C492.025 23.593 492.415 22.241 492.415 20.707C492.415 19.329 492.142 18.159 491.596 17.197C491.05 16.209 490.283 15.416 489.295 14.818C488.333 14.194 487.202 13.739 485.902 13.453C484.602 13.141 483.198 12.985 481.69 12.985V15.598C482.6 15.598 483.432 15.702 484.186 15.91C484.94 16.118 485.577 16.417 486.097 16.807C486.643 17.197 487.059 17.678 487.345 18.25C487.631 18.822 487.774 19.472 487.774 20.2C487.774 21.11 487.579 21.89 487.189 22.54C486.799 23.164 486.253 23.645 485.551 23.983C484.875 24.321 484.069 24.49 483.133 24.49C482.223 24.49 481.391 24.321 480.637 23.983C479.883 23.619 479.285 23.125 478.843 22.501C478.427 21.851 478.219 21.084 478.219 20.2H473.617C473.617 21.318 473.838 22.384 474.28 23.398C474.722 24.386 475.346 25.27 476.152 26.05C476.958 26.804 477.946 27.402 479.116 27.844C480.286 28.26 481.599 28.468 483.055 28.468ZM497.218 26.011C497.218 26.739 497.478 27.376 497.998 27.922C498.544 28.468 499.194 28.741 499.948 28.741C500.754 28.741 501.417 28.468 501.937 27.922C502.457 27.376 502.717 26.739 502.717 26.011C502.717 25.257 502.457 24.62 501.937 24.1C501.417 23.554 500.754 23.281 499.948 23.281C499.194 23.281 498.544 23.554 497.998 24.1C497.478 24.62 497.218 25.257 497.218 26.011ZM497.218 11.269C497.218 12.023 497.478 12.673 497.998 13.219C498.544 13.739 499.194 13.999 499.948 13.999C500.754 13.999 501.417 13.739 501.937 13.219C502.457 12.673 502.717 12.023 502.717 11.269C502.717 10.515 502.457 9.878 501.937 9.358C501.417 8.812 500.754 8.539 499.948 8.539C499.194 8.539 498.544 8.812 497.998 9.358C497.478 9.878 497.218 10.515 497.218 11.269ZM512.062 14.35C512.062 12.894 512.205 11.555 512.491 10.333C512.777 9.111 513.18 8.058 513.7 7.174C514.246 6.29 514.896 5.614 515.65 5.146C516.404 4.652 517.236 4.405 518.146 4.405C519.108 4.405 519.953 4.652 520.681 5.146C521.435 5.614 522.072 6.29 522.592 7.174C523.138 8.058 523.554 9.111 523.84 10.333C524.126 11.555 524.269 12.894 524.269 14.35C524.269 15.806 524.126 17.145 523.84 18.367C523.554 19.589 523.138 20.642 522.592 21.526C522.072 22.41 521.435 23.099 520.681 23.593C519.953 24.061 519.108 24.295 518.146 24.295C517.236 24.295 516.404 24.061 515.65 23.593C514.896 23.099 514.246 22.41 513.7 21.526C513.18 20.642 512.777 19.589 512.491 18.367C512.205 17.145 512.062 15.806 512.062 14.35ZM507.538 14.35C507.538 17.184 507.98 19.654 508.864 21.76C509.774 23.866 511.022 25.504 512.608 26.674C514.22 27.844 516.066 28.429 518.146 28.429C520.278 28.429 522.137 27.844 523.723 26.674C525.335 25.504 526.583 23.866 527.467 21.76C528.351 19.654 528.793 17.184 528.793 14.35C528.793 11.516 528.351 9.046 527.467 6.94C526.583 4.834 525.335 3.196 523.723 2.026C522.137 0.855999 520.278 0.270999 518.146 0.270999C516.066 0.270999 514.22 0.855999 512.608 2.026C511.022 3.196 509.774 4.834 508.864 6.94C507.98 9.046 507.538 11.516 507.538 14.35ZM536.437 14.35C536.437 12.894 536.58 11.555 536.866 10.333C537.152 9.111 537.555 8.058 538.075 7.174C538.621 6.29 539.271 5.614 540.025 5.146C540.779 4.652 541.611 4.405 542.521 4.405C543.483 4.405 544.328 4.652 545.056 5.146C545.81 5.614 546.447 6.29 546.967 7.174C547.513 8.058 547.929 9.111 548.215 10.333C548.501 11.555 548.644 12.894 548.644 14.35C548.644 15.806 548.501 17.145 548.215 18.367C547.929 19.589 547.513 20.642 546.967 21.526C546.447 22.41 545.81 23.099 545.056 23.593C544.328 24.061 543.483 24.295 542.521 24.295C541.611 24.295 540.779 24.061 540.025 23.593C539.271 23.099 538.621 22.41 538.075 21.526C537.555 20.642 537.152 19.589 536.866 18.367C536.58 17.145 536.437 15.806 536.437 14.35ZM531.913 14.35C531.913 17.184 532.355 19.654 533.239 21.76C534.149 23.866 535.397 25.504 536.983 26.674C538.595 27.844 540.441 28.429 542.521 28.429C544.653 28.429 546.512 27.844 548.098 26.674C549.71 25.504 550.958 23.866 551.842 21.76C552.726 19.654 553.168 17.184 553.168 14.35C553.168 11.516 552.726 9.046 551.842 6.94C550.958 4.834 549.71 3.196 548.098 2.026C546.512 0.855999 544.653 0.270999 542.521 0.270999C540.441 0.270999 538.595 0.855999 536.983 2.026C535.397 3.196 534.149 4.834 533.239 6.94C532.355 9.046 531.913 11.516 531.913 14.35Z" fill="black"/>
  <path d="M895.925 7.096L902.243 5.341V28H906.806V0.270999L895.925 2.728V7.096ZM917.907 18.796C917.907 17.678 918.141 16.69 918.609 15.832C919.103 14.948 919.766 14.272 920.598 13.804C921.43 13.31 922.379 13.063 923.445 13.063C924.485 13.063 925.421 13.31 926.253 13.804C927.085 14.272 927.735 14.948 928.203 15.832C928.697 16.69 928.944 17.678 928.944 18.796C928.944 19.914 928.697 20.902 928.203 21.76C927.735 22.592 927.085 23.255 926.253 23.749C925.421 24.217 924.485 24.451 923.445 24.451C922.379 24.451 921.43 24.217 920.598 23.749C919.766 23.255 919.103 22.592 918.609 21.76C918.141 20.902 917.907 19.914 917.907 18.796ZM924.381 0.738998L915.723 12.361C915.047 13.245 914.488 14.22 914.046 15.286C913.63 16.352 913.422 17.522 913.422 18.796C913.422 20.798 913.864 22.527 914.748 23.983C915.658 25.439 916.867 26.557 918.375 27.337C919.883 28.091 921.573 28.468 923.445 28.468C925.317 28.468 927.007 28.091 928.515 27.337C930.023 26.557 931.219 25.439 932.103 23.983C932.987 22.527 933.429 20.798 933.429 18.796C933.429 17.496 933.208 16.3 932.766 15.208C932.324 14.116 931.713 13.18 930.933 12.4C930.179 11.594 929.308 10.983 928.32 10.567C927.332 10.151 926.305 9.943 925.239 9.943C924.303 9.943 923.497 10.047 922.821 10.255C922.145 10.463 921.508 10.905 920.91 11.581L921.573 11.464L930.231 0.738998H924.381ZM938.666 26.011C938.666 26.739 938.926 27.376 939.446 27.922C939.992 28.468 940.642 28.741 941.396 28.741C942.202 28.741 942.865 28.468 943.385 27.922C943.905 27.376 944.165 26.739 944.165 26.011C944.165 25.257 943.905 24.62 943.385 24.1C942.865 23.554 942.202 23.281 941.396 23.281C940.642 23.281 939.992 23.554 939.446 24.1C938.926 24.62 938.666 25.257 938.666 26.011ZM938.666 11.269C938.666 12.023 938.926 12.673 939.446 13.219C939.992 13.739 940.642 13.999 941.396 13.999C942.202 13.999 942.865 13.739 943.385 13.219C943.905 12.673 944.165 12.023 944.165 11.269C944.165 10.515 943.905 9.878 943.385 9.358C942.865 8.812 942.202 8.539 941.396 8.539C940.642 8.539 939.992 8.812 939.446 9.358C938.926 9.878 938.666 10.515 938.666 11.269ZM953.509 14.35C953.509 12.894 953.652 11.555 953.938 10.333C954.224 9.111 954.627 8.058 955.147 7.174C955.693 6.29 956.343 5.614 957.097 5.146C957.851 4.652 958.683 4.405 959.593 4.405C960.555 4.405 961.4 4.652 962.128 5.146C962.882 5.614 963.519 6.29 964.039 7.174C964.585 8.058 965.001 9.111 965.287 10.333C965.573 11.555 965.716 12.894 965.716 14.35C965.716 15.806 965.573 17.145 965.287 18.367C965.001 19.589 964.585 20.642 964.039 21.526C963.519 22.41 962.882 23.099 962.128 23.593C961.4 24.061 960.555 24.295 959.593 24.295C958.683 24.295 957.851 24.061 957.097 23.593C956.343 23.099 955.693 22.41 955.147 21.526C954.627 20.642 954.224 19.589 953.938 18.367C953.652 17.145 953.509 15.806 953.509 14.35ZM948.985 14.35C948.985 17.184 949.427 19.654 950.311 21.76C951.221 23.866 952.469 25.504 954.055 26.674C955.667 27.844 957.513 28.429 959.593 28.429C961.725 28.429 963.584 27.844 965.17 26.674C966.782 25.504 968.03 23.866 968.914 21.76C969.798 19.654 970.24 17.184 970.24 14.35C970.24 11.516 969.798 9.046 968.914 6.94C968.03 4.834 966.782 3.196 965.17 2.026C963.584 0.855999 961.725 0.270999 959.593 0.270999C957.513 0.270999 955.667 0.855999 954.055 2.026C952.469 3.196 951.221 4.834 950.311 6.94C949.427 9.046 948.985 11.516 948.985 14.35ZM977.884 14.35C977.884 12.894 978.027 11.555 978.313 10.333C978.599 9.111 979.002 8.058 979.522 7.174C980.068 6.29 980.718 5.614 981.472 5.146C982.226 4.652 983.058 4.405 983.968 4.405C984.93 4.405 985.775 4.652 986.503 5.146C987.257 5.614 987.894 6.29 988.414 7.174C988.96 8.058 989.376 9.111 989.662 10.333C989.948 11.555 990.091 12.894 990.091 14.35C990.091 15.806 989.948 17.145 989.662 18.367C989.376 19.589 988.96 20.642 988.414 21.526C987.894 22.41 987.257 23.099 986.503 23.593C985.775 24.061 984.93 24.295 983.968 24.295C983.058 24.295 982.226 24.061 981.472 23.593C980.718 23.099 980.068 22.41 979.522 21.526C979.002 20.642 978.599 19.589 978.313 18.367C978.027 17.145 977.884 15.806 977.884 14.35ZM973.36 14.35C973.36 17.184 973.802 19.654 974.686 21.76C975.596 23.866 976.844 25.504 978.43 26.674C980.042 27.844 981.888 28.429 983.968 28.429C986.1 28.429 987.959 27.844 989.545 26.674C991.157 25.504 992.405 23.866 993.289 21.76C994.173 19.654 994.615 17.184 994.615 14.35C994.615 11.516 994.173 9.046 993.289 6.94C992.405 4.834 991.157 3.196 989.545 2.026C987.959 0.855999 986.1 0.270999 983.968 0.270999C981.888 0.270999 980.042 0.855999 978.43 2.026C976.844 3.196 975.596 4.834 974.686 6.94C973.802 9.046 973.36 11.516 973.36 14.35Z" fill="black"/>
  <line x1="653" y1="106" x2="955" y2="106" stroke="black" stroke-width="4"/>
  <line x1="98" y1="107" x2="351" y2="107" stroke="black" stroke-width="4"/>
  <line x1="4" y1="107" x2="84" y2="107" stroke="black" stroke-width="4"/>
  <line x1="4" y1="107" x2="84" y2="107" stroke="black" stroke-width="4"/>
  <line x1="2" y1="92" x2="2" y2="120" stroke="black" stroke-width="4"/>
  <line x1="562" y1="107" x2="642" y2="107" stroke="black" stroke-width="4"/>
  <line x1="560" y1="92" x2="560" y2="120" stroke="black" stroke-width="4"/>
  <path d="M80 128.5C91.8007 128.5 101.5 119.393 101.5 108C101.5 96.6066 91.8007 87.5 80 87.5C68.1993 87.5 58.5 96.6066 58.5 108C58.5 119.393 68.1993 128.5 80 128.5Z" fill="#FF7991" stroke="black" stroke-width="3"/>
  <path d="M333 128.5C344.801 128.5 354.5 119.393 354.5 108C354.5 96.6066 344.801 87.5 333 87.5C321.199 87.5 311.5 96.6066 311.5 108C311.5 119.393 321.199 128.5 333 128.5Z" fill="#FF7991" stroke="black" stroke-width="3"/>
  <path d="M271 127.5C282.801 127.5 292.5 118.393 292.5 107C292.5 95.6066 282.801 86.5 271 86.5C259.199 86.5 249.5 95.6066 249.5 107C249.5 118.393 259.199 127.5 271 127.5Z" fill="#FF7991" stroke="black" stroke-width="3"/>
  <path d="M220 128.5C231.801 128.5 241.5 119.393 241.5 108C241.5 96.6066 231.801 87.5 220 87.5C208.199 87.5 198.5 96.6066 198.5 108C198.5 119.393 208.199 128.5 220 128.5Z" fill="#FF7991" stroke="black" stroke-width="3"/>
  <path d="M646 127.5C657.801 127.5 667.5 118.393 667.5 107C667.5 95.6066 657.801 86.5 646 86.5C634.199 86.5 624.5 95.6066 624.5 107C624.5 118.393 634.199 127.5 646 127.5Z" fill="#FFD542" stroke="black" stroke-width="3"/>
  <path d="M855 127.5C866.801 127.5 876.5 118.393 876.5 107C876.5 95.6066 866.801 86.5 855 86.5C843.199 86.5 833.5 95.6066 833.5 107C833.5 118.393 843.199 127.5 855 127.5Z" fill="#FFD542" stroke="black" stroke-width="3"/>
  <path d="M975 127.5C986.801 127.5 996.5 118.393 996.5 107C996.5 95.6066 986.801 86.5 975 86.5C963.199 86.5 953.5 95.6066 953.5 107C953.5 118.393 963.199 127.5 975 127.5Z" fill="#FFD542" stroke="black" stroke-width="3"/>
  <path d="M722 126.5C733.801 126.5 743.5 117.393 743.5 106C743.5 94.6066 733.801 85.5 722 85.5C710.199 85.5 700.5 94.6066 700.5 106C700.5 117.393 710.199 126.5 722 126.5Z" fill="#FFD542" stroke="black" stroke-width="3"/>
  <path d="M773 126.5C784.801 126.5 794.5 117.393 794.5 106C794.5 94.6066 784.801 85.5 773 85.5C761.199 85.5 751.5 94.6066 751.5 106C751.5 117.393 761.199 126.5 773 126.5Z" fill="#FFD542" stroke="black" stroke-width="3"/>
</svg>
