<svg width="959" height="193" viewBox="0 0 959 193" fill="none" xmlns="http://www.w3.org/2000/svg">
  <path d="M41 128.5C52.8007 128.5 62.5 119.393 62.5 108C62.5 96.6066 52.8007 87.5 41 87.5C29.1993 87.5 19.5 96.6066 19.5 108C19.5 119.393 29.1993 128.5 41 128.5Z" fill="#D9D9D9" stroke="black" stroke-width="3"/>
  <path d="M294 128.5C305.801 128.5 315.5 119.393 315.5 108C315.5 96.6066 305.801 87.5 294 87.5C282.199 87.5 272.5 96.6066 272.5 108C272.5 119.393 282.199 128.5 294 128.5Z" fill="#D9D9D9" stroke="black" stroke-width="3"/>
  <path d="M232 127.5C243.801 127.5 253.5 118.393 253.5 107C253.5 95.6066 243.801 86.5 232 86.5C220.199 86.5 210.5 95.6066 210.5 107C210.5 118.393 220.199 127.5 232 127.5Z" fill="#D9D9D9" stroke="black" stroke-width="3"/>
  <path d="M181 128.5C192.801 128.5 202.5 119.393 202.5 108C202.5 96.6066 192.801 87.5 181 87.5C169.199 87.5 159.5 96.6066 159.5 108C159.5 119.393 169.199 128.5 181 128.5Z" fill="#D9D9D9" stroke="black" stroke-width="3"/>
  <path d="M607 127.5C618.801 127.5 628.5 118.393 628.5 107C628.5 95.6066 618.801 86.5 607 86.5C595.199 86.5 585.5 95.6066 585.5 107C585.5 118.393 595.199 127.5 607 127.5Z" fill="#D9D9D9" stroke="black" stroke-width="3"/>
  <path d="M816 127.5C827.801 127.5 837.5 118.393 837.5 107C837.5 95.6066 827.801 86.5 816 86.5C804.199 86.5 794.5 95.6066 794.5 107C794.5 118.393 804.199 127.5 816 127.5Z" fill="#D9D9D9" stroke="black" stroke-width="3"/>
  <path d="M936 127.5C947.801 127.5 957.5 118.393 957.5 107C957.5 95.6066 947.801 86.5 936 86.5C924.199 86.5 914.5 95.6066 914.5 107C914.5 118.393 924.199 127.5 936 127.5Z" fill="#D9D9D9" stroke="black" stroke-width="3"/>
  <path d="M683 126.5C694.801 126.5 704.5 117.393 704.5 106C704.5 94.6066 694.801 85.5 683 85.5C671.199 85.5 661.5 94.6066 661.5 106C661.5 117.393 671.199 126.5 683 126.5Z" fill="#D9D9D9" stroke="black" stroke-width="3"/>
  <path d="M734 126.5C745.801 126.5 755.5 117.393 755.5 106C755.5 94.6066 745.801 85.5 734 85.5C722.199 85.5 712.5 94.6066 712.5 106C712.5 117.393 722.199 126.5 734 126.5Z" fill="#D9D9D9" stroke="black" stroke-width="3"/>
  <path d="M0.925 7.096L7.243 5.341V28H11.806V0.270999L0.925 2.728V7.096ZM22.5557 14.35C22.5557 12.894 22.6987 11.555 22.9847 10.333C23.2707 9.111 23.6737 8.058 24.1937 7.174C24.7397 6.29 25.3897 5.614 26.1437 5.146C26.8977 4.652 27.7297 4.405 28.6397 4.405C29.6017 4.405 30.4467 4.652 31.1747 5.146C31.9287 5.614 32.5657 6.29 33.0857 7.174C33.6317 8.058 34.0477 9.111 34.3337 10.333C34.6197 11.555 34.7627 12.894 34.7627 14.35C34.7627 15.806 34.6197 17.145 34.3337 18.367C34.0477 19.589 33.6317 20.642 33.0857 21.526C32.5657 22.41 31.9287 23.099 31.1747 23.593C30.4467 24.061 29.6017 24.295 28.6397 24.295C27.7297 24.295 26.8977 24.061 26.1437 23.593C25.3897 23.099 24.7397 22.41 24.1937 21.526C23.6737 20.642 23.2707 19.589 22.9847 18.367C22.6987 17.145 22.5557 15.806 22.5557 14.35ZM18.0317 14.35C18.0317 17.184 18.4737 19.654 19.3577 21.76C20.2677 23.866 21.5157 25.504 23.1017 26.674C24.7137 27.844 26.5597 28.429 28.6397 28.429C30.7717 28.429 32.6307 27.844 34.2167 26.674C35.8287 25.504 37.0767 23.866 37.9607 21.76C38.8447 19.654 39.2867 17.184 39.2867 14.35C39.2867 11.516 38.8447 9.046 37.9607 6.94C37.0767 4.834 35.8287 3.196 34.2167 2.026C32.6307 0.855999 30.7717 0.270999 28.6397 0.270999C26.5597 0.270999 24.7137 0.855999 23.1017 2.026C21.5157 3.196 20.2677 4.834 19.3577 6.94C18.4737 9.046 18.0317 11.516 18.0317 14.35ZM44.1227 26.011C44.1227 26.739 44.3827 27.376 44.9027 27.922C45.4487 28.468 46.0987 28.741 46.8527 28.741C47.6587 28.741 48.3217 28.468 48.8417 27.922C49.3617 27.376 49.6217 26.739 49.6217 26.011C49.6217 25.257 49.3617 24.62 48.8417 24.1C48.3217 23.554 47.6587 23.281 46.8527 23.281C46.0987 23.281 45.4487 23.554 44.9027 24.1C44.3827 24.62 44.1227 25.257 44.1227 26.011ZM44.1227 11.269C44.1227 12.023 44.3827 12.673 44.9027 13.219C45.4487 13.739 46.0987 13.999 46.8527 13.999C47.6587 13.999 48.3217 13.739 48.8417 13.219C49.3617 12.673 49.6217 12.023 49.6217 11.269C49.6217 10.515 49.3617 9.878 48.8417 9.358C48.3217 8.812 47.6587 8.539 46.8527 8.539C46.0987 8.539 45.4487 8.812 44.9027 9.358C44.3827 9.878 44.1227 10.515 44.1227 11.269ZM58.9658 14.35C58.9658 12.894 59.1088 11.555 59.3948 10.333C59.6808 9.111 60.0838 8.058 60.6038 7.174C61.1498 6.29 61.7998 5.614 62.5538 5.146C63.3078 4.652 64.1398 4.405 65.0498 4.405C66.0118 4.405 66.8568 4.652 67.5848 5.146C68.3388 5.614 68.9758 6.29 69.4958 7.174C70.0418 8.058 70.4578 9.111 70.7438 10.333C71.0298 11.555 71.1728 12.894 71.1728 14.35C71.1728 15.806 71.0298 17.145 70.7438 18.367C70.4578 19.589 70.0418 20.642 69.4958 21.526C68.9758 22.41 68.3388 23.099 67.5848 23.593C66.8568 24.061 66.0118 24.295 65.0498 24.295C64.1398 24.295 63.3078 24.061 62.5538 23.593C61.7998 23.099 61.1498 22.41 60.6038 21.526C60.0838 20.642 59.6808 19.589 59.3948 18.367C59.1088 17.145 58.9658 15.806 58.9658 14.35ZM54.4418 14.35C54.4418 17.184 54.8838 19.654 55.7678 21.76C56.6778 23.866 57.9258 25.504 59.5118 26.674C61.1238 27.844 62.9698 28.429 65.0498 28.429C67.1818 28.429 69.0408 27.844 70.6268 26.674C72.2388 25.504 73.4868 23.866 74.3708 21.76C75.2548 19.654 75.6968 17.184 75.6968 14.35C75.6968 11.516 75.2548 9.046 74.3708 6.94C73.4868 4.834 72.2388 3.196 70.6268 2.026C69.0408 0.855999 67.1818 0.270999 65.0498 0.270999C62.9698 0.270999 61.1238 0.855999 59.5118 2.026C57.9258 3.196 56.6778 4.834 55.7678 6.94C54.8838 9.046 54.4418 11.516 54.4418 14.35ZM83.3408 14.35C83.3408 12.894 83.4838 11.555 83.7698 10.333C84.0558 9.111 84.4588 8.058 84.9788 7.174C85.5248 6.29 86.1748 5.614 86.9288 5.146C87.6828 4.652 88.5148 4.405 89.4248 4.405C90.3868 4.405 91.2318 4.652 91.9598 5.146C92.7138 5.614 93.3508 6.29 93.8708 7.174C94.4168 8.058 94.8328 9.111 95.1188 10.333C95.4048 11.555 95.5478 12.894 95.5478 14.35C95.5478 15.806 95.4048 17.145 95.1188 18.367C94.8328 19.589 94.4168 20.642 93.8708 21.526C93.3508 22.41 92.7138 23.099 91.9598 23.593C91.2318 24.061 90.3868 24.295 89.4248 24.295C88.5148 24.295 87.6828 24.061 86.9288 23.593C86.1748 23.099 85.5248 22.41 84.9788 21.526C84.4588 20.642 84.0558 19.589 83.7698 18.367C83.4838 17.145 83.3408 15.806 83.3408 14.35ZM78.8168 14.35C78.8168 17.184 79.2588 19.654 80.1428 21.76C81.0528 23.866 82.3008 25.504 83.8868 26.674C85.4988 27.844 87.3448 28.429 89.4248 28.429C91.5568 28.429 93.4158 27.844 95.0018 26.674C96.6138 25.504 97.8618 23.866 98.7458 21.76C99.6298 19.654 100.072 17.184 100.072 14.35C100.072 11.516 99.6298 9.046 98.7458 6.94C97.8618 4.834 96.6138 3.196 95.0018 2.026C93.4158 0.855999 91.5568 0.270999 89.4248 0.270999C87.3448 0.270999 85.4988 0.855999 83.8868 2.026C82.3008 3.196 81.0528 4.834 80.1428 6.94C79.2588 9.046 78.8168 11.516 78.8168 14.35Z" fill="black"/>
  <path d="M97.95 178.064L102.162 176.894V192H105.204V173.514L97.95 175.152V178.064ZM112.916 171.72H110.108V192H112.916V171.72ZM117.804 184.72V192H120.638V184.33C120.638 183.307 120.482 182.458 120.17 181.782C119.858 181.089 119.39 180.569 118.766 180.222C118.16 179.875 117.414 179.702 116.53 179.702C115.629 179.702 114.858 179.927 114.216 180.378C113.592 180.829 113.107 181.427 112.76 182.172C112.414 182.917 112.24 183.767 112.24 184.72H112.916C112.916 184.183 113.029 183.715 113.254 183.316C113.48 182.917 113.792 182.605 114.19 182.38C114.589 182.155 115.048 182.042 115.568 182.042C116.348 182.042 116.912 182.267 117.258 182.718C117.622 183.169 117.804 183.836 117.804 184.72Z" fill="black"/>
  <path d="M181.52 192H195.404V189.14H187.5L192.674 184.07C193.419 183.377 194.017 182.588 194.468 181.704C194.936 180.82 195.17 179.901 195.17 178.948C195.17 178.341 195.04 177.717 194.78 177.076C194.537 176.435 194.156 175.845 193.636 175.308C193.133 174.771 192.492 174.337 191.712 174.008C190.932 173.661 190.013 173.488 188.956 173.488C187.569 173.488 186.391 173.783 185.42 174.372C184.467 174.944 183.739 175.741 183.236 176.764C182.751 177.769 182.508 178.922 182.508 180.222H185.55C185.55 179.425 185.68 178.723 185.94 178.116C186.217 177.509 186.607 177.05 187.11 176.738C187.613 176.409 188.211 176.244 188.904 176.244C189.407 176.244 189.849 176.331 190.23 176.504C190.611 176.66 190.932 176.877 191.192 177.154C191.469 177.431 191.669 177.743 191.79 178.09C191.929 178.419 191.998 178.757 191.998 179.104C191.998 179.589 191.92 180.049 191.764 180.482C191.608 180.915 191.374 181.349 191.062 181.782C190.75 182.215 190.377 182.666 189.944 183.134L181.52 192ZM200.747 182.9C200.747 181.929 200.843 181.037 201.033 180.222C201.224 179.407 201.493 178.705 201.839 178.116C202.203 177.527 202.637 177.076 203.139 176.764C203.642 176.435 204.197 176.27 204.803 176.27C205.445 176.27 206.008 176.435 206.493 176.764C206.996 177.076 207.421 177.527 207.767 178.116C208.131 178.705 208.409 179.407 208.599 180.222C208.79 181.037 208.885 181.929 208.885 182.9C208.885 183.871 208.79 184.763 208.599 185.578C208.409 186.393 208.131 187.095 207.767 187.684C207.421 188.273 206.996 188.733 206.493 189.062C206.008 189.374 205.445 189.53 204.803 189.53C204.197 189.53 203.642 189.374 203.139 189.062C202.637 188.733 202.203 188.273 201.839 187.684C201.493 187.095 201.224 186.393 201.033 185.578C200.843 184.763 200.747 183.871 200.747 182.9ZM197.731 182.9C197.731 184.789 198.026 186.436 198.615 187.84C199.222 189.244 200.054 190.336 201.111 191.116C202.186 191.896 203.417 192.286 204.803 192.286C206.225 192.286 207.464 191.896 208.521 191.116C209.596 190.336 210.428 189.244 211.017 187.84C211.607 186.436 211.901 184.789 211.901 182.9C211.901 181.011 211.607 179.364 211.017 177.96C210.428 176.556 209.596 175.464 208.521 174.684C207.464 173.904 206.225 173.514 204.803 173.514C203.417 173.514 202.186 173.904 201.111 174.684C200.054 175.464 199.222 176.556 198.615 177.96C198.026 179.364 197.731 181.011 197.731 182.9ZM231.843 184.408C231.843 183.42 231.705 182.579 231.427 181.886C231.15 181.193 230.725 180.673 230.153 180.326C229.599 179.962 228.897 179.78 228.047 179.78C227.233 179.78 226.505 179.962 225.863 180.326C225.239 180.69 224.719 181.219 224.303 181.912C224.043 181.219 223.619 180.69 223.029 180.326C222.457 179.962 221.729 179.78 220.845 179.78C220.083 179.78 219.415 179.953 218.843 180.3C218.289 180.629 217.838 181.123 217.491 181.782V180.04H214.735V192H217.491V184.72C217.491 184.148 217.587 183.663 217.777 183.264C217.968 182.865 218.237 182.562 218.583 182.354C218.947 182.146 219.372 182.042 219.857 182.042C220.551 182.042 221.053 182.267 221.365 182.718C221.695 183.151 221.859 183.819 221.859 184.72V192H224.667V184.72C224.667 184.148 224.763 183.663 224.953 183.264C225.161 182.865 225.439 182.562 225.785 182.354C226.149 182.146 226.565 182.042 227.033 182.042C227.727 182.042 228.229 182.267 228.541 182.718C228.871 183.151 229.035 183.819 229.035 184.72V192H231.843V184.408Z" fill="black"/>
  <path d="M251.812 183.082C253.095 183.082 254.23 182.891 255.218 182.51C256.223 182.129 257.012 181.583 257.584 180.872C258.156 180.161 258.442 179.347 258.442 178.428C258.442 177.527 258.217 176.712 257.766 175.984C257.333 175.239 256.7 174.641 255.868 174.19C255.036 173.739 254.031 173.514 252.852 173.514C251.743 173.514 250.763 173.739 249.914 174.19C249.065 174.623 248.397 175.221 247.912 175.984C247.444 176.747 247.21 177.631 247.21 178.636H250.096C250.096 177.908 250.356 177.31 250.876 176.842C251.413 176.357 252.081 176.114 252.878 176.114C253.415 176.114 253.866 176.218 254.23 176.426C254.594 176.634 254.871 176.929 255.062 177.31C255.253 177.674 255.348 178.099 255.348 178.584C255.348 178.965 255.261 179.338 255.088 179.702C254.932 180.049 254.698 180.352 254.386 180.612C254.091 180.872 253.727 181.08 253.294 181.236C252.861 181.375 252.367 181.444 251.812 181.444V183.082ZM252.722 192.312C253.97 192.312 255.062 192.095 255.998 191.662C256.934 191.229 257.662 190.622 258.182 189.842C258.702 189.062 258.962 188.161 258.962 187.138C258.962 186.219 258.78 185.439 258.416 184.798C258.052 184.139 257.541 183.611 256.882 183.212C256.241 182.796 255.487 182.493 254.62 182.302C253.753 182.094 252.817 181.99 251.812 181.99V183.732C252.419 183.732 252.973 183.801 253.476 183.94C253.979 184.079 254.403 184.278 254.75 184.538C255.114 184.798 255.391 185.119 255.582 185.5C255.773 185.881 255.868 186.315 255.868 186.8C255.868 187.407 255.738 187.927 255.478 188.36C255.218 188.776 254.854 189.097 254.386 189.322C253.935 189.547 253.398 189.66 252.774 189.66C252.167 189.66 251.613 189.547 251.11 189.322C250.607 189.079 250.209 188.75 249.914 188.334C249.637 187.901 249.498 187.389 249.498 186.8H246.43C246.43 187.545 246.577 188.256 246.872 188.932C247.167 189.591 247.583 190.18 248.12 190.7C248.657 191.203 249.316 191.601 250.096 191.896C250.876 192.173 251.751 192.312 252.722 192.312ZM264.036 182.9C264.036 181.929 264.132 181.037 264.322 180.222C264.513 179.407 264.782 178.705 265.128 178.116C265.492 177.527 265.926 177.076 266.428 176.764C266.931 176.435 267.486 176.27 268.092 176.27C268.734 176.27 269.297 176.435 269.782 176.764C270.285 177.076 270.71 177.527 271.056 178.116C271.42 178.705 271.698 179.407 271.888 180.222C272.079 181.037 272.174 181.929 272.174 182.9C272.174 183.871 272.079 184.763 271.888 185.578C271.698 186.393 271.42 187.095 271.056 187.684C270.71 188.273 270.285 188.733 269.782 189.062C269.297 189.374 268.734 189.53 268.092 189.53C267.486 189.53 266.931 189.374 266.428 189.062C265.926 188.733 265.492 188.273 265.128 187.684C264.782 187.095 264.513 186.393 264.322 185.578C264.132 184.763 264.036 183.871 264.036 182.9ZM261.02 182.9C261.02 184.789 261.315 186.436 261.904 187.84C262.511 189.244 263.343 190.336 264.4 191.116C265.475 191.896 266.706 192.286 268.092 192.286C269.514 192.286 270.753 191.896 271.81 191.116C272.885 190.336 273.717 189.244 274.306 187.84C274.896 186.436 275.19 184.789 275.19 182.9C275.19 181.011 274.896 179.364 274.306 177.96C273.717 176.556 272.885 175.464 271.81 174.684C270.753 173.904 269.514 173.514 268.092 173.514C266.706 173.514 265.475 173.904 264.4 174.684C263.343 175.464 262.511 176.556 261.904 177.96C261.315 179.364 261.02 181.011 261.02 182.9ZM295.132 184.408C295.132 183.42 294.994 182.579 294.716 181.886C294.439 181.193 294.014 180.673 293.442 180.326C292.888 179.962 292.186 179.78 291.336 179.78C290.522 179.78 289.794 179.962 289.152 180.326C288.528 180.69 288.008 181.219 287.592 181.912C287.332 181.219 286.908 180.69 286.318 180.326C285.746 179.962 285.018 179.78 284.134 179.78C283.372 179.78 282.704 179.953 282.132 180.3C281.578 180.629 281.127 181.123 280.78 181.782V180.04H278.024V192H280.78V184.72C280.78 184.148 280.876 183.663 281.066 183.264C281.257 182.865 281.526 182.562 281.872 182.354C282.236 182.146 282.661 182.042 283.146 182.042C283.84 182.042 284.342 182.267 284.654 182.718C284.984 183.151 285.148 183.819 285.148 184.72V192H287.956V184.72C287.956 184.148 288.052 183.663 288.242 183.264C288.45 182.865 288.728 182.562 289.074 182.354C289.438 182.146 289.854 182.042 290.322 182.042C291.016 182.042 291.518 182.267 291.83 182.718C292.16 183.151 292.324 183.819 292.324 184.72V192H295.132V184.408Z" fill="black"/>
  <path d="M416.925 7.096L423.243 5.341V28H427.806V0.270999L416.925 2.728V7.096ZM442.69 14.623C444.614 14.623 446.317 14.337 447.799 13.765C449.307 13.193 450.49 12.374 451.348 11.308C452.206 10.242 452.635 9.02 452.635 7.642C452.635 6.29 452.297 5.068 451.621 3.976C450.971 2.858 450.022 1.961 448.774 1.285C447.526 0.608999 446.018 0.270999 444.25 0.270999C442.586 0.270999 441.117 0.608999 439.843 1.285C438.569 1.935 437.568 2.832 436.84 3.976C436.138 5.12 435.787 6.446 435.787 7.954H440.116C440.116 6.862 440.506 5.965 441.286 5.263C442.092 4.535 443.093 4.171 444.289 4.171C445.095 4.171 445.771 4.327 446.317 4.639C446.863 4.951 447.279 5.393 447.565 5.965C447.851 6.511 447.994 7.148 447.994 7.876C447.994 8.448 447.864 9.007 447.604 9.553C447.37 10.073 447.019 10.528 446.551 10.918C446.109 11.308 445.563 11.62 444.913 11.854C444.263 12.062 443.522 12.166 442.69 12.166V14.623ZM444.055 28.468C445.927 28.468 447.565 28.143 448.969 27.493C450.373 26.843 451.465 25.933 452.245 24.763C453.025 23.593 453.415 22.241 453.415 20.707C453.415 19.329 453.142 18.159 452.596 17.197C452.05 16.209 451.283 15.416 450.295 14.818C449.333 14.194 448.202 13.739 446.902 13.453C445.602 13.141 444.198 12.985 442.69 12.985V15.598C443.6 15.598 444.432 15.702 445.186 15.91C445.94 16.118 446.577 16.417 447.097 16.807C447.643 17.197 448.059 17.678 448.345 18.25C448.631 18.822 448.774 19.472 448.774 20.2C448.774 21.11 448.579 21.89 448.189 22.54C447.799 23.164 447.253 23.645 446.551 23.983C445.875 24.321 445.069 24.49 444.133 24.49C443.223 24.49 442.391 24.321 441.637 23.983C440.883 23.619 440.285 23.125 439.843 22.501C439.427 21.851 439.219 21.084 439.219 20.2H434.617C434.617 21.318 434.838 22.384 435.28 23.398C435.722 24.386 436.346 25.27 437.152 26.05C437.958 26.804 438.946 27.402 440.116 27.844C441.286 28.26 442.599 28.468 444.055 28.468ZM458.218 26.011C458.218 26.739 458.478 27.376 458.998 27.922C459.544 28.468 460.194 28.741 460.948 28.741C461.754 28.741 462.417 28.468 462.937 27.922C463.457 27.376 463.717 26.739 463.717 26.011C463.717 25.257 463.457 24.62 462.937 24.1C462.417 23.554 461.754 23.281 460.948 23.281C460.194 23.281 459.544 23.554 458.998 24.1C458.478 24.62 458.218 25.257 458.218 26.011ZM458.218 11.269C458.218 12.023 458.478 12.673 458.998 13.219C459.544 13.739 460.194 13.999 460.948 13.999C461.754 13.999 462.417 13.739 462.937 13.219C463.457 12.673 463.717 12.023 463.717 11.269C463.717 10.515 463.457 9.878 462.937 9.358C462.417 8.812 461.754 8.539 460.948 8.539C460.194 8.539 459.544 8.812 458.998 9.358C458.478 9.878 458.218 10.515 458.218 11.269ZM473.062 14.35C473.062 12.894 473.205 11.555 473.491 10.333C473.777 9.111 474.18 8.058 474.7 7.174C475.246 6.29 475.896 5.614 476.65 5.146C477.404 4.652 478.236 4.405 479.146 4.405C480.108 4.405 480.953 4.652 481.681 5.146C482.435 5.614 483.072 6.29 483.592 7.174C484.138 8.058 484.554 9.111 484.84 10.333C485.126 11.555 485.269 12.894 485.269 14.35C485.269 15.806 485.126 17.145 484.84 18.367C484.554 19.589 484.138 20.642 483.592 21.526C483.072 22.41 482.435 23.099 481.681 23.593C480.953 24.061 480.108 24.295 479.146 24.295C478.236 24.295 477.404 24.061 476.65 23.593C475.896 23.099 475.246 22.41 474.7 21.526C474.18 20.642 473.777 19.589 473.491 18.367C473.205 17.145 473.062 15.806 473.062 14.35ZM468.538 14.35C468.538 17.184 468.98 19.654 469.864 21.76C470.774 23.866 472.022 25.504 473.608 26.674C475.22 27.844 477.066 28.429 479.146 28.429C481.278 28.429 483.137 27.844 484.723 26.674C486.335 25.504 487.583 23.866 488.467 21.76C489.351 19.654 489.793 17.184 489.793 14.35C489.793 11.516 489.351 9.046 488.467 6.94C487.583 4.834 486.335 3.196 484.723 2.026C483.137 0.855999 481.278 0.270999 479.146 0.270999C477.066 0.270999 475.22 0.855999 473.608 2.026C472.022 3.196 470.774 4.834 469.864 6.94C468.98 9.046 468.538 11.516 468.538 14.35ZM497.437 14.35C497.437 12.894 497.58 11.555 497.866 10.333C498.152 9.111 498.555 8.058 499.075 7.174C499.621 6.29 500.271 5.614 501.025 5.146C501.779 4.652 502.611 4.405 503.521 4.405C504.483 4.405 505.328 4.652 506.056 5.146C506.81 5.614 507.447 6.29 507.967 7.174C508.513 8.058 508.929 9.111 509.215 10.333C509.501 11.555 509.644 12.894 509.644 14.35C509.644 15.806 509.501 17.145 509.215 18.367C508.929 19.589 508.513 20.642 507.967 21.526C507.447 22.41 506.81 23.099 506.056 23.593C505.328 24.061 504.483 24.295 503.521 24.295C502.611 24.295 501.779 24.061 501.025 23.593C500.271 23.099 499.621 22.41 499.075 21.526C498.555 20.642 498.152 19.589 497.866 18.367C497.58 17.145 497.437 15.806 497.437 14.35ZM492.913 14.35C492.913 17.184 493.355 19.654 494.239 21.76C495.149 23.866 496.397 25.504 497.983 26.674C499.595 27.844 501.441 28.429 503.521 28.429C505.653 28.429 507.512 27.844 509.098 26.674C510.71 25.504 511.958 23.866 512.842 21.76C513.726 19.654 514.168 17.184 514.168 14.35C514.168 11.516 513.726 9.046 512.842 6.94C511.958 4.834 510.71 3.196 509.098 2.026C507.512 0.855999 505.653 0.270999 503.521 0.270999C501.441 0.270999 499.595 0.855999 497.983 2.026C496.397 3.196 495.149 4.834 494.239 6.94C493.355 9.046 492.913 11.516 492.913 14.35Z" fill="black"/>
  <path d="M856.925 7.096L863.243 5.341V28H867.806V0.270999L856.925 2.728V7.096ZM878.907 18.796C878.907 17.678 879.141 16.69 879.609 15.832C880.103 14.948 880.766 14.272 881.598 13.804C882.43 13.31 883.379 13.063 884.445 13.063C885.485 13.063 886.421 13.31 887.253 13.804C888.085 14.272 888.735 14.948 889.203 15.832C889.697 16.69 889.944 17.678 889.944 18.796C889.944 19.914 889.697 20.902 889.203 21.76C888.735 22.592 888.085 23.255 887.253 23.749C886.421 24.217 885.485 24.451 884.445 24.451C883.379 24.451 882.43 24.217 881.598 23.749C880.766 23.255 880.103 22.592 879.609 21.76C879.141 20.902 878.907 19.914 878.907 18.796ZM885.381 0.738998L876.723 12.361C876.047 13.245 875.488 14.22 875.046 15.286C874.63 16.352 874.422 17.522 874.422 18.796C874.422 20.798 874.864 22.527 875.748 23.983C876.658 25.439 877.867 26.557 879.375 27.337C880.883 28.091 882.573 28.468 884.445 28.468C886.317 28.468 888.007 28.091 889.515 27.337C891.023 26.557 892.219 25.439 893.103 23.983C893.987 22.527 894.429 20.798 894.429 18.796C894.429 17.496 894.208 16.3 893.766 15.208C893.324 14.116 892.713 13.18 891.933 12.4C891.179 11.594 890.308 10.983 889.32 10.567C888.332 10.151 887.305 9.943 886.239 9.943C885.303 9.943 884.497 10.047 883.821 10.255C883.145 10.463 882.508 10.905 881.91 11.581L882.573 11.464L891.231 0.738998H885.381ZM899.666 26.011C899.666 26.739 899.926 27.376 900.446 27.922C900.992 28.468 901.642 28.741 902.396 28.741C903.202 28.741 903.865 28.468 904.385 27.922C904.905 27.376 905.165 26.739 905.165 26.011C905.165 25.257 904.905 24.62 904.385 24.1C903.865 23.554 903.202 23.281 902.396 23.281C901.642 23.281 900.992 23.554 900.446 24.1C899.926 24.62 899.666 25.257 899.666 26.011ZM899.666 11.269C899.666 12.023 899.926 12.673 900.446 13.219C900.992 13.739 901.642 13.999 902.396 13.999C903.202 13.999 903.865 13.739 904.385 13.219C904.905 12.673 905.165 12.023 905.165 11.269C905.165 10.515 904.905 9.878 904.385 9.358C903.865 8.812 903.202 8.539 902.396 8.539C901.642 8.539 900.992 8.812 900.446 9.358C899.926 9.878 899.666 10.515 899.666 11.269ZM914.509 14.35C914.509 12.894 914.652 11.555 914.938 10.333C915.224 9.111 915.627 8.058 916.147 7.174C916.693 6.29 917.343 5.614 918.097 5.146C918.851 4.652 919.683 4.405 920.593 4.405C921.555 4.405 922.4 4.652 923.128 5.146C923.882 5.614 924.519 6.29 925.039 7.174C925.585 8.058 926.001 9.111 926.287 10.333C926.573 11.555 926.716 12.894 926.716 14.35C926.716 15.806 926.573 17.145 926.287 18.367C926.001 19.589 925.585 20.642 925.039 21.526C924.519 22.41 923.882 23.099 923.128 23.593C922.4 24.061 921.555 24.295 920.593 24.295C919.683 24.295 918.851 24.061 918.097 23.593C917.343 23.099 916.693 22.41 916.147 21.526C915.627 20.642 915.224 19.589 914.938 18.367C914.652 17.145 914.509 15.806 914.509 14.35ZM909.985 14.35C909.985 17.184 910.427 19.654 911.311 21.76C912.221 23.866 913.469 25.504 915.055 26.674C916.667 27.844 918.513 28.429 920.593 28.429C922.725 28.429 924.584 27.844 926.17 26.674C927.782 25.504 929.03 23.866 929.914 21.76C930.798 19.654 931.24 17.184 931.24 14.35C931.24 11.516 930.798 9.046 929.914 6.94C929.03 4.834 927.782 3.196 926.17 2.026C924.584 0.855999 922.725 0.270999 920.593 0.270999C918.513 0.270999 916.667 0.855999 915.055 2.026C913.469 3.196 912.221 4.834 911.311 6.94C910.427 9.046 909.985 11.516 909.985 14.35ZM938.884 14.35C938.884 12.894 939.027 11.555 939.313 10.333C939.599 9.111 940.002 8.058 940.522 7.174C941.068 6.29 941.718 5.614 942.472 5.146C943.226 4.652 944.058 4.405 944.968 4.405C945.93 4.405 946.775 4.652 947.503 5.146C948.257 5.614 948.894 6.29 949.414 7.174C949.96 8.058 950.376 9.111 950.662 10.333C950.948 11.555 951.091 12.894 951.091 14.35C951.091 15.806 950.948 17.145 950.662 18.367C950.376 19.589 949.96 20.642 949.414 21.526C948.894 22.41 948.257 23.099 947.503 23.593C946.775 24.061 945.93 24.295 944.968 24.295C944.058 24.295 943.226 24.061 942.472 23.593C941.718 23.099 941.068 22.41 940.522 21.526C940.002 20.642 939.599 19.589 939.313 18.367C939.027 17.145 938.884 15.806 938.884 14.35ZM934.36 14.35C934.36 17.184 934.802 19.654 935.686 21.76C936.596 23.866 937.844 25.504 939.43 26.674C941.042 27.844 942.888 28.429 944.968 28.429C947.1 28.429 948.959 27.844 950.545 26.674C952.157 25.504 953.405 23.866 954.289 21.76C955.173 19.654 955.615 17.184 955.615 14.35C955.615 11.516 955.173 9.046 954.289 6.94C953.405 4.834 952.157 3.196 950.545 2.026C948.959 0.855999 947.1 0.270999 944.968 0.270999C942.888 0.270999 941.042 0.855999 939.43 2.026C937.844 3.196 936.596 4.834 935.686 6.94C934.802 9.046 934.36 11.516 934.36 14.35Z" fill="black"/>
  <line x1="43" y1="142" x2="43" y2="164" stroke="black" stroke-width="4"/>
  <line x1="173" y1="142" x2="173" y2="164" stroke="black" stroke-width="4"/>
  <line x1="45" y1="162" x2="171" y2="162" stroke="black" stroke-width="4"/>
  <line x1="185" y1="142" x2="185" y2="164" stroke="black" stroke-width="4"/>
  <line x1="297" y1="142" x2="297" y2="164" stroke="black" stroke-width="4"/>
  <line x1="230" y1="142" x2="230" y2="164" stroke="black" stroke-width="4"/>
  <line x1="241" y1="142" x2="241" y2="164" stroke="black" stroke-width="4"/>
  <line x1="187" y1="162" x2="232" y2="162" stroke="black" stroke-width="4"/>
  <line x1="243" y1="162" x2="295" y2="162" stroke="black" stroke-width="4"/>
</svg>
