<svg width="959" height="130" viewBox="0 0 959 130" fill="none" xmlns="http://www.w3.org/2000/svg">
  <path d="M41 128.5C52.8007 128.5 62.5 119.393 62.5 108C62.5 96.6066 52.8007 87.5 41 87.5C29.1993 87.5 19.5 96.6066 19.5 108C19.5 119.393 29.1993 128.5 41 128.5Z" fill="#D9D9D9" stroke="black" stroke-width="3"/>
  <path d="M294 128.5C305.801 128.5 315.5 119.393 315.5 108C315.5 96.6066 305.801 87.5 294 87.5C282.199 87.5 272.5 96.6066 272.5 108C272.5 119.393 282.199 128.5 294 128.5Z" fill="#D9D9D9" stroke="black" stroke-width="3"/>
  <path d="M232 127.5C243.801 127.5 253.5 118.393 253.5 107C253.5 95.6066 243.801 86.5 232 86.5C220.199 86.5 210.5 95.6066 210.5 107C210.5 118.393 220.199 127.5 232 127.5Z" fill="#D9D9D9" stroke="black" stroke-width="3"/>
  <path d="M181 128.5C192.801 128.5 202.5 119.393 202.5 108C202.5 96.6066 192.801 87.5 181 87.5C169.199 87.5 159.5 96.6066 159.5 108C159.5 119.393 169.199 128.5 181 128.5Z" fill="#D9D9D9" stroke="black" stroke-width="3"/>
  <path d="M607 127.5C618.801 127.5 628.5 118.393 628.5 107C628.5 95.6066 618.801 86.5 607 86.5C595.199 86.5 585.5 95.6066 585.5 107C585.5 118.393 595.199 127.5 607 127.5Z" fill="#D9D9D9" stroke="black" stroke-width="3"/>
  <path d="M816 127.5C827.801 127.5 837.5 118.393 837.5 107C837.5 95.6066 827.801 86.5 816 86.5C804.199 86.5 794.5 95.6066 794.5 107C794.5 118.393 804.199 127.5 816 127.5Z" fill="#D9D9D9" stroke="black" stroke-width="3"/>
  <path d="M936 127.5C947.801 127.5 957.5 118.393 957.5 107C957.5 95.6066 947.801 86.5 936 86.5C924.199 86.5 914.5 95.6066 914.5 107C914.5 118.393 924.199 127.5 936 127.5Z" fill="#D9D9D9" stroke="black" stroke-width="3"/>
  <path d="M683 126.5C694.801 126.5 704.5 117.393 704.5 106C704.5 94.6066 694.801 85.5 683 85.5C671.199 85.5 661.5 94.6066 661.5 106C661.5 117.393 671.199 126.5 683 126.5Z" fill="#D9D9D9" stroke="black" stroke-width="3"/>
  <path d="M734 126.5C745.801 126.5 755.5 117.393 755.5 106C755.5 94.6066 745.801 85.5 734 85.5C722.199 85.5 712.5 94.6066 712.5 106C712.5 117.393 722.199 126.5 734 126.5Z" fill="#D9D9D9" stroke="black" stroke-width="3"/>
  <path d="M0.925 7.096L7.243 5.341V28H11.806V0.270999L0.925 2.728V7.096ZM22.5557 14.35C22.5557 12.894 22.6987 11.555 22.9847 10.333C23.2707 9.111 23.6737 8.058 24.1937 7.174C24.7397 6.29 25.3897 5.614 26.1437 5.146C26.8977 4.652 27.7297 4.405 28.6397 4.405C29.6017 4.405 30.4467 4.652 31.1747 5.146C31.9287 5.614 32.5657 6.29 33.0857 7.174C33.6317 8.058 34.0477 9.111 34.3337 10.333C34.6197 11.555 34.7627 12.894 34.7627 14.35C34.7627 15.806 34.6197 17.145 34.3337 18.367C34.0477 19.589 33.6317 20.642 33.0857 21.526C32.5657 22.41 31.9287 23.099 31.1747 23.593C30.4467 24.061 29.6017 24.295 28.6397 24.295C27.7297 24.295 26.8977 24.061 26.1437 23.593C25.3897 23.099 24.7397 22.41 24.1937 21.526C23.6737 20.642 23.2707 19.589 22.9847 18.367C22.6987 17.145 22.5557 15.806 22.5557 14.35ZM18.0317 14.35C18.0317 17.184 18.4737 19.654 19.3577 21.76C20.2677 23.866 21.5157 25.504 23.1017 26.674C24.7137 27.844 26.5597 28.429 28.6397 28.429C30.7717 28.429 32.6307 27.844 34.2167 26.674C35.8287 25.504 37.0767 23.866 37.9607 21.76C38.8447 19.654 39.2867 17.184 39.2867 14.35C39.2867 11.516 38.8447 9.046 37.9607 6.94C37.0767 4.834 35.8287 3.196 34.2167 2.026C32.6307 0.855999 30.7717 0.270999 28.6397 0.270999C26.5597 0.270999 24.7137 0.855999 23.1017 2.026C21.5157 3.196 20.2677 4.834 19.3577 6.94C18.4737 9.046 18.0317 11.516 18.0317 14.35ZM44.1227 26.011C44.1227 26.739 44.3827 27.376 44.9027 27.922C45.4487 28.468 46.0987 28.741 46.8527 28.741C47.6587 28.741 48.3217 28.468 48.8417 27.922C49.3617 27.376 49.6217 26.739 49.6217 26.011C49.6217 25.257 49.3617 24.62 48.8417 24.1C48.3217 23.554 47.6587 23.281 46.8527 23.281C46.0987 23.281 45.4487 23.554 44.9027 24.1C44.3827 24.62 44.1227 25.257 44.1227 26.011ZM44.1227 11.269C44.1227 12.023 44.3827 12.673 44.9027 13.219C45.4487 13.739 46.0987 13.999 46.8527 13.999C47.6587 13.999 48.3217 13.739 48.8417 13.219C49.3617 12.673 49.6217 12.023 49.6217 11.269C49.6217 10.515 49.3617 9.878 48.8417 9.358C48.3217 8.812 47.6587 8.539 46.8527 8.539C46.0987 8.539 45.4487 8.812 44.9027 9.358C44.3827 9.878 44.1227 10.515 44.1227 11.269ZM58.9658 14.35C58.9658 12.894 59.1088 11.555 59.3948 10.333C59.6808 9.111 60.0838 8.058 60.6038 7.174C61.1498 6.29 61.7998 5.614 62.5538 5.146C63.3078 4.652 64.1398 4.405 65.0498 4.405C66.0118 4.405 66.8568 4.652 67.5848 5.146C68.3388 5.614 68.9758 6.29 69.4958 7.174C70.0418 8.058 70.4578 9.111 70.7438 10.333C71.0298 11.555 71.1728 12.894 71.1728 14.35C71.1728 15.806 71.0298 17.145 70.7438 18.367C70.4578 19.589 70.0418 20.642 69.4958 21.526C68.9758 22.41 68.3388 23.099 67.5848 23.593C66.8568 24.061 66.0118 24.295 65.0498 24.295C64.1398 24.295 63.3078 24.061 62.5538 23.593C61.7998 23.099 61.1498 22.41 60.6038 21.526C60.0838 20.642 59.6808 19.589 59.3948 18.367C59.1088 17.145 58.9658 15.806 58.9658 14.35ZM54.4418 14.35C54.4418 17.184 54.8838 19.654 55.7678 21.76C56.6778 23.866 57.9258 25.504 59.5118 26.674C61.1238 27.844 62.9698 28.429 65.0498 28.429C67.1818 28.429 69.0408 27.844 70.6268 26.674C72.2388 25.504 73.4868 23.866 74.3708 21.76C75.2548 19.654 75.6968 17.184 75.6968 14.35C75.6968 11.516 75.2548 9.046 74.3708 6.94C73.4868 4.834 72.2388 3.196 70.6268 2.026C69.0408 0.855999 67.1818 0.270999 65.0498 0.270999C62.9698 0.270999 61.1238 0.855999 59.5118 2.026C57.9258 3.196 56.6778 4.834 55.7678 6.94C54.8838 9.046 54.4418 11.516 54.4418 14.35ZM83.3408 14.35C83.3408 12.894 83.4838 11.555 83.7698 10.333C84.0558 9.111 84.4588 8.058 84.9788 7.174C85.5248 6.29 86.1748 5.614 86.9288 5.146C87.6828 4.652 88.5148 4.405 89.4248 4.405C90.3868 4.405 91.2318 4.652 91.9598 5.146C92.7138 5.614 93.3508 6.29 93.8708 7.174C94.4168 8.058 94.8328 9.111 95.1188 10.333C95.4048 11.555 95.5478 12.894 95.5478 14.35C95.5478 15.806 95.4048 17.145 95.1188 18.367C94.8328 19.589 94.4168 20.642 93.8708 21.526C93.3508 22.41 92.7138 23.099 91.9598 23.593C91.2318 24.061 90.3868 24.295 89.4248 24.295C88.5148 24.295 87.6828 24.061 86.9288 23.593C86.1748 23.099 85.5248 22.41 84.9788 21.526C84.4588 20.642 84.0558 19.589 83.7698 18.367C83.4838 17.145 83.3408 15.806 83.3408 14.35ZM78.8168 14.35C78.8168 17.184 79.2588 19.654 80.1428 21.76C81.0528 23.866 82.3008 25.504 83.8868 26.674C85.4988 27.844 87.3448 28.429 89.4248 28.429C91.5568 28.429 93.4158 27.844 95.0018 26.674C96.6138 25.504 97.8618 23.866 98.7458 21.76C99.6298 19.654 100.072 17.184 100.072 14.35C100.072 11.516 99.6298 9.046 98.7458 6.94C97.8618 4.834 96.6138 3.196 95.0018 2.026C93.4158 0.855999 91.5568 0.270999 89.4248 0.270999C87.3448 0.270999 85.4988 0.855999 83.8868 2.026C82.3008 3.196 81.0528 4.834 80.1428 6.94C79.2588 9.046 78.8168 11.516 78.8168 14.35Z" fill="black"/>
  <path d="M416.925 7.096L423.243 5.341V28H427.806V0.270999L416.925 2.728V7.096ZM433.252 28H454.078V23.71H442.222L449.983 16.105C451.101 15.065 451.998 13.882 452.674 12.556C453.376 11.23 453.727 9.852 453.727 8.422C453.727 7.512 453.532 6.576 453.142 5.614C452.778 4.652 452.206 3.768 451.426 2.962C450.672 2.156 449.71 1.506 448.54 1.012C447.37 0.491999 445.992 0.232 444.406 0.232C442.326 0.232 440.558 0.673999 439.102 1.558C437.672 2.416 436.58 3.612 435.826 5.146C435.098 6.654 434.734 8.383 434.734 10.333H439.297C439.297 9.137 439.492 8.084 439.882 7.174C440.298 6.264 440.883 5.575 441.637 5.107C442.391 4.613 443.288 4.366 444.328 4.366C445.082 4.366 445.745 4.496 446.317 4.756C446.889 4.99 447.37 5.315 447.76 5.731C448.176 6.147 448.475 6.615 448.657 7.135C448.865 7.629 448.969 8.136 448.969 8.656C448.969 9.384 448.852 10.073 448.618 10.723C448.384 11.373 448.033 12.023 447.565 12.673C447.097 13.323 446.538 13.999 445.888 14.701L433.252 28ZM459.285 26.011C459.285 26.739 459.545 27.376 460.065 27.922C460.611 28.468 461.261 28.741 462.015 28.741C462.821 28.741 463.484 28.468 464.004 27.922C464.524 27.376 464.784 26.739 464.784 26.011C464.784 25.257 464.524 24.62 464.004 24.1C463.484 23.554 462.821 23.281 462.015 23.281C461.261 23.281 460.611 23.554 460.065 24.1C459.545 24.62 459.285 25.257 459.285 26.011ZM459.285 11.269C459.285 12.023 459.545 12.673 460.065 13.219C460.611 13.739 461.261 13.999 462.015 13.999C462.821 13.999 463.484 13.739 464.004 13.219C464.524 12.673 464.784 12.023 464.784 11.269C464.784 10.515 464.524 9.878 464.004 9.358C463.484 8.812 462.821 8.539 462.015 8.539C461.261 8.539 460.611 8.812 460.065 9.358C459.545 9.878 459.285 10.515 459.285 11.269ZM474.128 14.35C474.128 12.894 474.271 11.555 474.557 10.333C474.843 9.111 475.246 8.058 475.766 7.174C476.312 6.29 476.962 5.614 477.716 5.146C478.47 4.652 479.302 4.405 480.212 4.405C481.174 4.405 482.019 4.652 482.747 5.146C483.501 5.614 484.138 6.29 484.658 7.174C485.204 8.058 485.62 9.111 485.906 10.333C486.192 11.555 486.335 12.894 486.335 14.35C486.335 15.806 486.192 17.145 485.906 18.367C485.62 19.589 485.204 20.642 484.658 21.526C484.138 22.41 483.501 23.099 482.747 23.593C482.019 24.061 481.174 24.295 480.212 24.295C479.302 24.295 478.47 24.061 477.716 23.593C476.962 23.099 476.312 22.41 475.766 21.526C475.246 20.642 474.843 19.589 474.557 18.367C474.271 17.145 474.128 15.806 474.128 14.35ZM469.604 14.35C469.604 17.184 470.046 19.654 470.93 21.76C471.84 23.866 473.088 25.504 474.674 26.674C476.286 27.844 478.132 28.429 480.212 28.429C482.344 28.429 484.203 27.844 485.789 26.674C487.401 25.504 488.649 23.866 489.533 21.76C490.417 19.654 490.859 17.184 490.859 14.35C490.859 11.516 490.417 9.046 489.533 6.94C488.649 4.834 487.401 3.196 485.789 2.026C484.203 0.855999 482.344 0.270999 480.212 0.270999C478.132 0.270999 476.286 0.855999 474.674 2.026C473.088 3.196 471.84 4.834 470.93 6.94C470.046 9.046 469.604 11.516 469.604 14.35ZM498.503 14.35C498.503 12.894 498.646 11.555 498.932 10.333C499.218 9.111 499.621 8.058 500.141 7.174C500.687 6.29 501.337 5.614 502.091 5.146C502.845 4.652 503.677 4.405 504.587 4.405C505.549 4.405 506.394 4.652 507.122 5.146C507.876 5.614 508.513 6.29 509.033 7.174C509.579 8.058 509.995 9.111 510.281 10.333C510.567 11.555 510.71 12.894 510.71 14.35C510.71 15.806 510.567 17.145 510.281 18.367C509.995 19.589 509.579 20.642 509.033 21.526C508.513 22.41 507.876 23.099 507.122 23.593C506.394 24.061 505.549 24.295 504.587 24.295C503.677 24.295 502.845 24.061 502.091 23.593C501.337 23.099 500.687 22.41 500.141 21.526C499.621 20.642 499.218 19.589 498.932 18.367C498.646 17.145 498.503 15.806 498.503 14.35ZM493.979 14.35C493.979 17.184 494.421 19.654 495.305 21.76C496.215 23.866 497.463 25.504 499.049 26.674C500.661 27.844 502.507 28.429 504.587 28.429C506.719 28.429 508.578 27.844 510.164 26.674C511.776 25.504 513.024 23.866 513.908 21.76C514.792 19.654 515.234 17.184 515.234 14.35C515.234 11.516 514.792 9.046 513.908 6.94C513.024 4.834 511.776 3.196 510.164 2.026C508.578 0.855999 506.719 0.270999 504.587 0.270999C502.507 0.270999 500.661 0.855999 499.049 2.026C497.463 3.196 496.215 4.834 495.305 6.94C494.421 9.046 493.979 11.516 493.979 14.35Z" fill="black"/>
  <path d="M856.925 7.096L863.243 5.341V28H867.806V0.270999L856.925 2.728V7.096ZM878.907 18.796C878.907 17.678 879.141 16.69 879.609 15.832C880.103 14.948 880.766 14.272 881.598 13.804C882.43 13.31 883.379 13.063 884.445 13.063C885.485 13.063 886.421 13.31 887.253 13.804C888.085 14.272 888.735 14.948 889.203 15.832C889.697 16.69 889.944 17.678 889.944 18.796C889.944 19.914 889.697 20.902 889.203 21.76C888.735 22.592 888.085 23.255 887.253 23.749C886.421 24.217 885.485 24.451 884.445 24.451C883.379 24.451 882.43 24.217 881.598 23.749C880.766 23.255 880.103 22.592 879.609 21.76C879.141 20.902 878.907 19.914 878.907 18.796ZM885.381 0.738998L876.723 12.361C876.047 13.245 875.488 14.22 875.046 15.286C874.63 16.352 874.422 17.522 874.422 18.796C874.422 20.798 874.864 22.527 875.748 23.983C876.658 25.439 877.867 26.557 879.375 27.337C880.883 28.091 882.573 28.468 884.445 28.468C886.317 28.468 888.007 28.091 889.515 27.337C891.023 26.557 892.219 25.439 893.103 23.983C893.987 22.527 894.429 20.798 894.429 18.796C894.429 17.496 894.208 16.3 893.766 15.208C893.324 14.116 892.713 13.18 891.933 12.4C891.179 11.594 890.308 10.983 889.32 10.567C888.332 10.151 887.305 9.943 886.239 9.943C885.303 9.943 884.497 10.047 883.821 10.255C883.145 10.463 882.508 10.905 881.91 11.581L882.573 11.464L891.231 0.738998H885.381ZM899.666 26.011C899.666 26.739 899.926 27.376 900.446 27.922C900.992 28.468 901.642 28.741 902.396 28.741C903.202 28.741 903.865 28.468 904.385 27.922C904.905 27.376 905.165 26.739 905.165 26.011C905.165 25.257 904.905 24.62 904.385 24.1C903.865 23.554 903.202 23.281 902.396 23.281C901.642 23.281 900.992 23.554 900.446 24.1C899.926 24.62 899.666 25.257 899.666 26.011ZM899.666 11.269C899.666 12.023 899.926 12.673 900.446 13.219C900.992 13.739 901.642 13.999 902.396 13.999C903.202 13.999 903.865 13.739 904.385 13.219C904.905 12.673 905.165 12.023 905.165 11.269C905.165 10.515 904.905 9.878 904.385 9.358C903.865 8.812 903.202 8.539 902.396 8.539C901.642 8.539 900.992 8.812 900.446 9.358C899.926 9.878 899.666 10.515 899.666 11.269ZM914.509 14.35C914.509 12.894 914.652 11.555 914.938 10.333C915.224 9.111 915.627 8.058 916.147 7.174C916.693 6.29 917.343 5.614 918.097 5.146C918.851 4.652 919.683 4.405 920.593 4.405C921.555 4.405 922.4 4.652 923.128 5.146C923.882 5.614 924.519 6.29 925.039 7.174C925.585 8.058 926.001 9.111 926.287 10.333C926.573 11.555 926.716 12.894 926.716 14.35C926.716 15.806 926.573 17.145 926.287 18.367C926.001 19.589 925.585 20.642 925.039 21.526C924.519 22.41 923.882 23.099 923.128 23.593C922.4 24.061 921.555 24.295 920.593 24.295C919.683 24.295 918.851 24.061 918.097 23.593C917.343 23.099 916.693 22.41 916.147 21.526C915.627 20.642 915.224 19.589 914.938 18.367C914.652 17.145 914.509 15.806 914.509 14.35ZM909.985 14.35C909.985 17.184 910.427 19.654 911.311 21.76C912.221 23.866 913.469 25.504 915.055 26.674C916.667 27.844 918.513 28.429 920.593 28.429C922.725 28.429 924.584 27.844 926.17 26.674C927.782 25.504 929.03 23.866 929.914 21.76C930.798 19.654 931.24 17.184 931.24 14.35C931.24 11.516 930.798 9.046 929.914 6.94C929.03 4.834 927.782 3.196 926.17 2.026C924.584 0.855999 922.725 0.270999 920.593 0.270999C918.513 0.270999 916.667 0.855999 915.055 2.026C913.469 3.196 912.221 4.834 911.311 6.94C910.427 9.046 909.985 11.516 909.985 14.35ZM938.884 14.35C938.884 12.894 939.027 11.555 939.313 10.333C939.599 9.111 940.002 8.058 940.522 7.174C941.068 6.29 941.718 5.614 942.472 5.146C943.226 4.652 944.058 4.405 944.968 4.405C945.93 4.405 946.775 4.652 947.503 5.146C948.257 5.614 948.894 6.29 949.414 7.174C949.96 8.058 950.376 9.111 950.662 10.333C950.948 11.555 951.091 12.894 951.091 14.35C951.091 15.806 950.948 17.145 950.662 18.367C950.376 19.589 949.96 20.642 949.414 21.526C948.894 22.41 948.257 23.099 947.503 23.593C946.775 24.061 945.93 24.295 944.968 24.295C944.058 24.295 943.226 24.061 942.472 23.593C941.718 23.099 941.068 22.41 940.522 21.526C940.002 20.642 939.599 19.589 939.313 18.367C939.027 17.145 938.884 15.806 938.884 14.35ZM934.36 14.35C934.36 17.184 934.802 19.654 935.686 21.76C936.596 23.866 937.844 25.504 939.43 26.674C941.042 27.844 942.888 28.429 944.968 28.429C947.1 28.429 948.959 27.844 950.545 26.674C952.157 25.504 953.405 23.866 954.289 21.76C955.173 19.654 955.615 17.184 955.615 14.35C955.615 11.516 955.173 9.046 954.289 6.94C953.405 4.834 952.157 3.196 950.545 2.026C948.959 0.855999 947.1 0.270999 944.968 0.270999C942.888 0.270999 941.042 0.855999 939.43 2.026C937.844 3.196 936.596 4.834 935.686 6.94C934.802 9.046 934.36 11.516 934.36 14.35Z" fill="black"/>
</svg>
