<svg width="159" height="144" viewBox="0 0 159 144" fill="none" xmlns="http://www.w3.org/2000/svg">
  <path d="M154.067 65.7613L86.4071 4.64948C85.4822 3.80978 84.3828 3.14344 83.172 2.68876C81.9612 2.23407 80.6628 2 79.3515 2C78.0401 2 76.7418 2.23407 75.5309 2.68876C74.3201 3.14344 73.2207 3.80978 72.2958 4.64948L58.2589 17.328L76.0836 33.4277C78.1803 32.7993 80.4294 32.7112 82.5785 33.1733C84.7276 33.6354 86.6915 34.6295 88.2497 36.0439C89.8079 37.4583 90.8988 39.237 91.3998 41.1804C91.9009 43.1237 91.7922 45.1548 91.0861 47.0454L108.242 62.6085C110.814 61.8146 113.609 61.8408 116.161 62.6826C118.714 63.5245 120.87 65.1312 122.27 67.2349C123.67 69.3386 124.23 71.8121 123.856 74.2433C123.481 76.6744 122.196 78.9162 120.213 80.595C118.231 82.2737 115.671 83.288 112.961 83.4687C110.251 83.6495 107.554 82.9857 105.32 81.5882C103.086 80.1906 101.45 78.1437 100.684 75.7886C99.9184 73.4335 100.07 70.9125 101.112 68.6459L85.0702 54.1561V92.2588C87.5065 93.3497 89.4549 95.1624 90.5901 97.3942C91.7254 99.626 91.9788 102.142 91.3082 104.522C90.6375 106.902 89.0834 109.003 86.9051 110.473C84.7268 111.943 82.0562 112.694 79.3389 112.6C76.6216 112.507 74.0221 111.574 71.9742 109.958C69.9263 108.342 68.554 106.141 68.0862 103.722C67.6183 101.302 68.0834 98.8109 69.4037 96.6638C70.724 94.5166 72.8196 92.8434 75.3409 91.9234V53.5524C73.8929 53.0106 72.5797 52.2122 71.4789 51.2045C69.8161 49.6948 68.6881 47.7724 68.2384 45.6819C67.7888 43.5914 68.0378 41.4274 68.9537 39.4651L51.3518 23.5667L4.93336 65.493C4.0037 66.3283 3.26595 67.3214 2.76255 68.415C2.25915 69.5087 2 70.6814 2 71.8658C2 73.0502 2.25915 74.223 2.76255 75.3166C3.26595 76.4103 4.0037 77.4033 4.93336 78.2386L72.5929 139.351C73.5177 140.19 74.6172 140.857 75.828 141.311C77.0388 141.766 78.3372 142 79.6485 142C80.9599 142 82.2582 141.766 83.4691 141.311C84.6799 140.857 85.7793 140.19 86.7042 139.351L154.067 78.507C154.996 77.6717 155.734 76.6786 156.237 75.585C156.741 74.4913 157 73.3186 157 72.1342C157 70.9497 156.741 69.777 156.237 68.6833C155.734 67.5897 154.996 66.5967 154.067 65.7613Z" fill="#63FC85" stroke="#0A0A0A" stroke-width="4" stroke-linecap="round" stroke-linejoin="round"/>
  <path d="M50.6784 79.8911L51.0219 80.216L51.3654 79.8911L54.3404 77.078L54.7246 76.7147L54.3404 76.3514L46.5281 68.9641V57.9269V57.4269H46.0281H41.7781H41.2781V57.9269V70.787V71.0023L41.4346 71.1503L50.6784 79.8911ZM43.9031 89.5771C38.1473 89.5771 33.2608 87.6646 29.2144 83.8384C25.1662 80.0104 23.1531 75.4011 23.1531 69.9832C23.1531 64.5654 25.1662 59.9561 29.2144 56.1281C33.2608 52.3019 38.1473 50.3894 43.9031 50.3894C49.659 50.3894 54.547 52.3019 58.5962 56.1282C62.6415 59.9561 64.6531 64.5654 64.6531 69.9832C64.6531 75.4012 62.6414 80.0105 58.596 83.8385C54.5468 87.6646 49.6588 89.5771 43.9031 89.5771Z" fill="#1C1B1F" stroke="black"/>
</svg>
